Loretta - ExtraLight Display.ufo
<glyph name="numbersign" format="2">
	<advance width="606"/>
	<unicode hex="0023"/>
	<outline>
		<contour>
			<point x="334" y="0" type="line"/>
			<point x="345" y="0" type="line"/>
			<point x="485" y="692" type="line"/>
			<point x="474" y="692" type="line"/>
		</contour>
		<contour>
			<point x="20" y="226" type="line"/>
			<point x="556" y="226" type="line"/>
			<point x="556" y="236" type="line"/>
			<point x="20" y="236" type="line"/>
		</contour>
		<contour>
			<point x="121" y="0" type="line"/>
			<point x="132" y="0" type="line"/>
			<point x="272" y="692" type="line"/>
			<point x="261" y="692" type="line"/>
		</contour>
		<contour>
			<point x="50" y="456" type="line"/>
			<point x="586" y="456" type="line"/>
			<point x="586" y="466" type="line" name="❌"/>
			<point x="50" y="466" type="line" name="❌"/>
		</contour>
	</outline>
</glyph>
<glyph name="percent" format="2">
	<advance width="869"/>
	<unicode hex="0025"/>
	<outline>
		<contour>
			<point x="191" y="0" type="line"/>
			<point x="214" y="0" type="line"/>
			<point x="690" y="704" type="line"/>
			<point x="667" y="704" type="line"/>
		</contour>
		<contour>
			<point x="234" y="349" type="curve" smooth="yes"/>
			<point x="322" y="349"/>
			<point x="394" y="420"/>
			<point x="394" y="533" type="curve" smooth="yes"/>
			<point x="394" y="645"/>
			<point x="322" y="713"/>
			<point x="234" y="713" type="curve" smooth="yes"/>
			<point x="147" y="713"/>
			<point x="75" y="646"/>
			<point x="75" y="533" type="curve" smooth="yes"/>
			<point x="75" y="419"/>
			<point x="147" y="349"/>
		</contour>
		<contour>
			<point x="234" y="359" type="curve" smooth="yes"/>
			<point x="162" y="359"/>
			<point x="120" y="427"/>
			<point x="120" y="533" type="curve" smooth="yes"/>
			<point x="120" y="639"/>
			<point x="162" y="703"/>
			<point x="234" y="703" type="curve" smooth="yes"/>
			<point x="307" y="703"/>
			<point x="349" y="638"/>
			<point x="349" y="533" type="curve" smooth="yes"/>
			<point x="349" y="428"/>
			<point x="307" y="359"/>
		</contour>
		<contour>
			<point x="634" y="-10" type="curve" smooth="yes"/>
			<point x="722" y="-10"/>
			<point x="794" y="61"/>
			<point x="794" y="174" type="curve" smooth="yes"/>
			<point x="794" y="286"/>
			<point x="722" y="354"/>
			<point x="634" y="354" type="curve" smooth="yes"/>
			<point x="547" y="354"/>
			<point x="475" y="287"/>
			<point x="475" y="174" type="curve" smooth="yes"/>
			<point x="475" y="60"/>
			<point x="547" y="-10"/>
		</contour>
		<contour>
			<point x="634" y="0" type="curve" smooth="yes"/>
			<point x="562" y="0"/>
			<point x="520" y="68"/>
			<point x="520" y="174" type="curve" smooth="yes"/>
			<point x="520" y="280"/>
			<point x="562" y="344"/>
			<point x="634" y="344" type="curve" smooth="yes"/>
			<point x="707" y="344"/>
			<point x="749" y="279"/>
			<point x="749" y="174" type="curve" smooth="yes"/>
			<point x="749" y="69"/>
			<point x="707" y="0"/>
		</contour>
	</outline>
</glyph>
<glyph name="ampersand" format="2">
	<advance width="777"/>
	<unicode hex="0026"/>
	<outline>
		<contour>
			<point x="631" y="-12" type="curve" smooth="yes"/>
			<point x="676" y="-12"/>
			<point x="731" y="9"/>
			<point x="768" y="124" type="curve"/>
			<point x="758" y="129" type="line"/>
			<point x="733" y="55"/>
			<point x="700" y="29"/>
			<point x="653" y="29" type="curve" smooth="yes"/>
			<point x="599" y="29"/>
			<point x="567" y="63"/>
			<point x="519" y="116" type="curve" smooth="yes"/>
			<point x="246" y="415" type="line" smooth="yes"/>
			<point x="205" y="460"/>
			<point x="177" y="501"/>
			<point x="177" y="563" type="curve" smooth="yes"/>
			<point x="177" y="632"/>
			<point x="212" y="692"/>
			<point x="304" y="692" type="curve" smooth="yes"/>
			<point x="371" y="692"/>
			<point x="431" y="660"/>
			<point x="447" y="529" type="curve"/>
			<point x="459" y="529" type="line"/>
			<point x="459" y="669" type="line"/>
			<point x="409" y="692"/>
			<point x="366" y="704"/>
			<point x="320" y="704" type="curve" smooth="yes"/>
			<point x="218" y="704"/>
			<point x="134" y="637"/>
			<point x="134" y="541" type="curve" smooth="yes"/>
			<point x="134" y="490"/>
			<point x="158" y="443"/>
			<point x="215" y="380" type="curve" smooth="yes"/>
			<point x="485" y="82" type="line" smooth="yes"/>
			<point x="550" y="10"/>
			<point x="586" y="-12"/>
		</contour>
		<contour>
			<point x="232" y="-12" type="curve" smooth="yes"/>
			<point x="338" y="-12"/>
			<point x="403" y="51"/>
			<point x="459" y="138" type="curve"/>
			<point x="451" y="147" type="line"/>
			<point x="397" y="67"/>
			<point x="345" y="26"/>
			<point x="255" y="26" type="curve" smooth="yes"/>
			<point x="142" y="26"/>
			<point x="96" y="89"/>
			<point x="96" y="188" type="curve" smooth="yes"/>
			<point x="96" y="262"/>
			<point x="123" y="327"/>
			<point x="220" y="387" type="curve"/>
			<point x="214" y="395" type="line"/>
			<point x="100" y="335"/>
			<point x="40" y="271"/>
			<point x="40" y="171" type="curve" smooth="yes"/>
			<point x="40" y="61"/>
			<point x="117" y="-12"/>
		</contour>
		<contour>
			<point x="471" y="156" type="line"/>
			<point x="634" y="399" type="line" name="_corner01"/>
			<point x="619" y="399" type="line" name="_corner00"/>
			<point x="466" y="167" type="line"/>
		</contour>
	</outline>
</glyph>
<glyph name="quotesingle" format="2">
	<advance width="197"/>
	<unicode hex="0027"/>
	<guideline x="13" y="731" angle="0"/>
	<anchor x="50" y="0" name="#entry"/>
	<anchor x="170" y="0" name="#exit"/>
	<outline>
		<contour>
			<point x="104" y="508" type="line"/>
			<point x="120" y="585"/>
			<point x="137" y="636"/>
			<point x="137" y="679" type="curve" smooth="yes"/>
			<point x="137" y="714"/>
			<point x="124" y="731" name="❌"/>
			<point x="98" y="731" type="curve" smooth="yes" name="❌"/>
			<point x="72" y="731" name="❌"/>
			<point x="60" y="714"/>
			<point x="60" y="680" type="curve" smooth="yes"/>
			<point x="60" y="636"/>
			<point x="77" y="585"/>
			<point x="93" y="508" type="curve"/>
		</contour>
	</outline>
</glyph>
<glyph name="parenleft" format="2">
	<advance width="345"/>
	<unicode hex="0028"/>
	<outline>
		<contour>
			<point x="298" y="-180" type="curve"/>
			<point x="305" y="-170" type="line"/>
			<point x="191" y="-83"/>
			<point x="120" y="68"/>
			<point x="120" y="290" type="curve" smooth="yes"/>
			<point x="120" y="513"/>
			<point x="191" y="663"/>
			<point x="305" y="750" type="curve"/>
			<point x="298" y="760" type="line"/>
			<point x="162" y="684"/>
			<point x="65" y="519"/>
			<point x="65" y="290" type="curve" smooth="yes"/>
			<point x="65" y="61"/>
			<point x="162" y="-104"/>
		</contour>
	</outline>
</glyph>
<glyph name="asterisk" format="2">
	<advance width="461"/>
	<unicode hex="002A"/>
	<outline>
		<contour>
			<point x="325" y="394" type="curve" smooth="yes"/>
			<point x="340" y="394"/>
			<point x="354" y="405"/>
			<point x="354" y="421" type="curve" smooth="yes"/>
			<point x="354" y="439"/>
			<point x="336" y="455"/>
			<point x="314" y="475" type="curve" smooth="yes"/>
			<point x="238" y="543" type="line" name="🔥"/>
			<point x="230" y="537" type="line"/>
			<point x="277" y="441" type="line" smooth="yes"/>
			<point x="289" y="416"/>
			<point x="304" y="394"/>
		</contour>
		<contour>
			<point x="135" y="394" type="curve" smooth="yes"/>
			<point x="156" y="394"/>
			<point x="171" y="416"/>
			<point x="183" y="441" type="curve" smooth="yes"/>
			<point x="230" y="537" type="line"/>
			<point x="222" y="543" type="line" name="🔥"/>
			<point x="146" y="475" type="line" smooth="yes"/>
			<point x="124" y="455"/>
			<point x="106" y="439"/>
			<point x="106" y="421" type="curve" smooth="yes"/>
			<point x="106" y="405"/>
			<point x="120" y="394"/>
		</contour>
		<contour>
			<point x="113" y="556" type="curve" smooth="yes"/>
			<point x="222" y="543" type="line"/>
			<point x="225" y="553" type="line" name="🔥"/>
			<point x="154" y="597" type="line" smooth="yes"/>
			<point x="130" y="612"/>
			<point x="111" y="622"/>
			<point x="91" y="622" type="curve" smooth="yes"/>
			<point x="71" y="622"/>
			<point x="60" y="611"/>
			<point x="60" y="593" type="curve" smooth="yes"/>
			<point x="60" y="575"/>
			<point x="71" y="561"/>
		</contour>
		<contour>
			<point x="230" y="537" type="line" name="🔥"/>
			<point x="238" y="543" type="line" name="🔥"/>
			<point x="236" y="553" type="line" name="🔥"/>
			<point x="225" y="553" type="line" name="🔥"/>
			<point x="222" y="543" type="line" name="🔥"/>
		</contour>
		<contour>
			<point x="225" y="553" type="line" name="🔥"/>
			<point x="236" y="553" type="line"/>
			<point x="257" y="649" type="line" smooth="yes"/>
			<point x="261" y="667"/>
			<point x="262" y="674"/>
			<point x="262" y="684" type="curve" smooth="yes"/>
			<point x="262" y="715"/>
			<point x="252" y="730"/>
			<point x="231" y="730" type="curve" smooth="yes"/>
			<point x="210" y="730"/>
			<point x="199" y="716"/>
			<point x="199" y="684" type="curve" smooth="yes"/>
			<point x="199" y="674"/>
			<point x="200" y="667"/>
			<point x="204" y="649" type="curve" smooth="yes"/>
		</contour>
		<contour>
			<point x="348" y="556" type="line" smooth="yes"/>
			<point x="390" y="561"/>
			<point x="401" y="576"/>
			<point x="401" y="594" type="curve" smooth="yes"/>
			<point x="401" y="611"/>
			<point x="390" y="622"/>
			<point x="367" y="622" type="curve" smooth="yes"/>
			<point x="343" y="622"/>
			<point x="330" y="611"/>
			<point x="307" y="597" type="curve" smooth="yes"/>
			<point x="236" y="553" type="line" name="🔥"/>
			<point x="238" y="543" type="line" name="🔥"/>
		</contour>
	</outline>
</glyph>
<glyph name="zero" format="2">
	<advance width="570"/>
	<unicode hex="0030"/>
	<outline>
		<contour>
			<point x="285" y="-12" type="curve" smooth="yes"/>
			<point x="425" y="-12"/>
			<point x="530" y="94"/>
			<point x="530" y="239" type="curve" smooth="yes"/>
			<point x="530" y="384"/>
			<point x="425" y="490"/>
			<point x="285" y="490" type="curve" smooth="yes"/>
			<point x="145" y="490"/>
			<point x="40" y="384"/>
			<point x="40" y="239" type="curve" smooth="yes"/>
			<point x="40" y="94"/>
			<point x="145" y="-12"/>
		</contour>
		<contour>
			<point x="285" y="-2" type="curve" smooth="yes"/>
			<point x="151" y="-2"/>
			<point x="90" y="113"/>
			<point x="90" y="239" type="curve" smooth="yes"/>
			<point x="90" y="365"/>
			<point x="151" y="480"/>
			<point x="285" y="480" type="curve" smooth="yes"/>
			<point x="419" y="480"/>
			<point x="480" y="365"/>
			<point x="480" y="239" type="curve" smooth="yes"/>
			<point x="480" y="113"/>
			<point x="419" y="-2"/>
		</contour>
	</outline>
</glyph>
<glyph name="one" format="2">
	<advance width="393"/>
	<unicode hex="0031"/>
	<outline>
		<contour>
			<point x="180" y="0" type="line" name="_corner00"/>
			<point x="225" y="0" type="line" name="_corner01"/>
			<point x="225" y="478" type="line"/>
			<point x="217" y="478" type="line"/>
			<point x="63" y="410" type="line"/>
			<point x="68" y="401" type="line"/>
			<point x="89" y="410"/>
			<point x="116" y="418"/>
			<point x="134" y="418" type="curve" smooth="yes"/>
			<point x="162" y="418"/>
			<point x="180" y="409"/>
			<point x="180" y="367" type="curve" smooth="yes"/>
		</contour>
	</outline>
</glyph>
<glyph name="five" format="2">
	<advance width="436"/>
	<unicode hex="0035"/>
	<outline>
		<contour>
			<point x="25" y="-220" type="line"/>
			<point x="263" y="-183"/>
			<point x="402" y="-57"/>
			<point x="402" y="87" type="curve" smooth="yes"/>
			<point x="402" y="184"/>
			<point x="344" y="253"/>
			<point x="239" y="253" type="curve" smooth="yes"/>
			<point x="144" y="253"/>
			<point x="87" y="199"/>
			<point x="47" y="156" type="curve"/>
			<point x="49" y="149" type="line"/>
			<point x="77" y="446" type="line"/>
			<point x="71" y="438" type="line"/>
			<point x="358" y="438" type="line"/>
			<point x="388" y="593" type="line"/>
			<point x="380" y="593" type="line"/>
			<point x="358" y="501"/>
			<point x="329" y="478"/>
			<point x="254" y="478" type="curve" smooth="yes"/>
			<point x="68" y="478" type="line"/>
			<point x="38" y="143" type="line"/>
			<point x="44" y="138" type="line"/>
			<point x="89" y="188"/>
			<point x="143" y="223"/>
			<point x="206" y="223" type="curve" smooth="yes"/>
			<point x="290" y="223"/>
			<point x="346" y="167"/>
			<point x="346" y="75" type="curve" smooth="yes"/>
			<point x="346" y="-53"/>
			<point x="230" y="-178"/>
			<point x="24" y="-212" type="curve"/>
		</contour>
	</outline>
</glyph>
<glyph name="equal" format="2">
	<advance width="541"/>
	<unicode hex="003D"/>
	<outline>
		<contour>
			<point x="70" y="333" type="line"/>
			<point x="471" y="333" type="line"/>
			<point x="471" y="363" type="line"/>
			<point x="70" y="363" type="line"/>
		</contour>
		<contour>
			<point x="70" y="182" type="line"/>
			<point x="471" y="182" type="line"/>
			<point x="471" y="212" type="line"/>
			<point x="70" y="212" type="line"/>
		</contour>
	</outline>
</glyph>
<glyph name="D" format="2">
	<advance width="721"/>
	<unicode hex="0044"/>
	<anchor x="361" y="0" name="bottom"/>
	<anchor x="200" y="359" name="center"/>
	<anchor x="331" y="640" name="top"/>
	<outline>
		<contour>
			<point x="190" y="0" type="line"/>
			<point x="315" y="0" type="line" smooth="yes"/>
			<point x="533" y="0"/>
			<point x="667" y="126"/>
			<point x="667" y="346" type="curve" smooth="yes"/>
			<point x="667" y="565"/>
			<point x="533" y="692"/>
			<point x="315" y="692" type="curve" smooth="yes"/>
			<point x="190" y="692" type="line"/>
			<point x="190" y="680" type="line" name="🧨"/>
			<point x="315" y="680" type="line" smooth="yes"/>
			<point x="508" y="680"/>
			<point x="612" y="549"/>
			<point x="612" y="346" type="curve" smooth="yes"/>
			<point x="612" y="142"/>
			<point x="508" y="12"/>
			<point x="315" y="12" type="curve" smooth="yes"/>
			<point x="190" y="12" type="line" name="🧨"/>
		</contour>
		<contour>
			<point x="150" y="0" type="line" name="_corner01"/>
			<point x="200" y="0" type="line" name="🔥"/>
			<point x="200" y="692" type="line" name="🔥"/>
			<point x="150" y="692" type="line" name="_corner00"/>
		</contour>
	</outline>
</glyph>
<glyph name="H" format="2">
	<advance width="762"/>
	<unicode hex="0048"/>
	<anchor x="381" y="0" name="bottom"/>
	<anchor x="381" y="320" name="center"/>
	<anchor x="381" y="640" name="top"/>
	<anchor x="15" y="640" name="topleft"/>
	<outline>
		<contour>
			<point x="562" y="0" type="line" name="_corner07"/>
			<point x="612" y="0" type="line" name="_corner06"/>
			<point x="612" y="692" type="line" name="_corner05"/>
			<point x="562" y="692" type="line" name="_corner04"/>
		</contour>
		<contour>
			<point x="150" y="0" type="line" name="_corner00"/>
			<point x="200" y="0" type="line" name="_corner03"/>
			<point x="200" y="692" type="line" name="_corner02"/>
			<point x="150" y="692" type="line" name="_corner01"/>
		</contour>
		<contour>
			<point x="180" y="346" type="line"/>
			<point x="580" y="346" type="line"/>
			<point x="580" y="358" type="line"/>
			<point x="180" y="358" type="line"/>
		</contour>
	</outline>
</glyph>
<glyph name="J" format="2">
	<advance width="335"/>
	<unicode hex="004A"/>
	<anchor x="170" y="0" name="bottom"/>
	<anchor x="170" y="640" name="top"/>
	<outline>
		<contour>
			<point x="22" y="-140" type="line"/>
			<point x="146" y="-111"/>
			<point x="209" y="-23"/>
			<point x="209" y="113" type="curve" smooth="yes"/>
			<point x="209" y="692" type="line" name="_corner01"/>
			<point x="159" y="692" type="line" name="_corner00"/>
			<point x="159" y="126" type="line" smooth="yes"/>
			<point x="159" y="-21"/>
			<point x="123" y="-91"/>
			<point x="19" y="-128" type="curve"/>
		</contour>
	</outline>
</glyph>
<glyph name="N" format="2">
	<advance width="744"/>
	<unicode hex="004E"/>
	<anchor x="351" y="0" name="bottom"/>
	<anchor x="377" y="640" name="top"/>
	<outline>
		<contour>
			<point x="600" y="0" type="line" name="🔥"/>
			<point x="614" y="0" type="line"/>
			<point x="614" y="597" type="line"/>
			<point x="614" y="663"/>
			<point x="647" y="676"/>
			<point x="719" y="676" type="curve"/>
			<point x="719" y="692" type="line"/>
			<point x="474" y="692" type="line"/>
			<point x="474" y="676" type="line"/>
			<point x="560" y="676"/>
			<point x="600" y="663"/>
			<point x="600" y="597" type="curve"/>
			<point x="600" y="45" type="line" name="🔥"/>
			<point x="603" y="87" type="line"/>
			<point x="124" y="692" type="line"/>
			<point x="33" y="692" type="line"/>
			<point x="33" y="676" type="line"/>
			<point x="70" y="665"/>
			<point x="97" y="642"/>
			<point x="143" y="582" type="curve"/>
		</contour>
		<contour>
			<point x="33" y="0" type="line"/>
			<point x="278" y="0" type="line"/>
			<point x="278" y="16" type="line"/>
			<point x="192" y="16"/>
			<point x="152" y="29"/>
			<point x="152" y="95" type="curve"/>
			<point x="152" y="601" type="line"/>
			<point x="138" y="629" type="line"/>
			<point x="138" y="95" type="line"/>
			<point x="138" y="29"/>
			<point x="105" y="16"/>
			<point x="33" y="16" type="curve"/>
		</contour>
	</outline>
</glyph>
<glyph name="P" format="2">
	<advance width="600"/>
	<unicode hex="0050"/>
	<anchor x="297" y="0" name="bottom"/>
	<anchor x="297" y="640" name="top"/>
	<outline>
		<contour>
			<point x="150" y="0" type="line" name="_corner01"/>
			<point x="200" y="0" type="line" name="_corner02"/>
			<point x="200" y="692" type="line"/>
			<point x="150" y="692" type="line" name="_corner00"/>
		</contour>
		<contour>
			<point x="167" y="288" type="line"/>
			<point x="319" y="288" type="line" smooth="yes"/>
			<point x="497" y="288"/>
			<point x="570" y="389"/>
			<point x="570" y="495" type="curve" smooth="yes"/>
			<point x="570" y="613"/>
			<point x="480" y="692"/>
			<point x="334" y="692" type="curve" smooth="yes"/>
			<point x="170" y="692" type="line" name="🔥"/>
			<point x="170" y="680" type="line" name="🧨"/>
			<point x="310" y="680" type="line" smooth="yes"/>
			<point x="433" y="680"/>
			<point x="515" y="626"/>
			<point x="515" y="492" type="curve" smooth="yes"/>
			<point x="515" y="400"/>
			<point x="472" y="300"/>
			<point x="311" y="300" type="curve" smooth="yes"/>
			<point x="167" y="300" type="line"/>
		</contour>
	</outline>
</glyph>
<glyph name="S" format="2">
	<advance width="556"/>
	<unicode hex="0053"/>
	<anchor x="281" y="0" name="bottom"/>
	<anchor x="281" y="640" name="top"/>
	<outline>
		<contour>
			<point x="265" y="-12" type="curve" smooth="yes"/>
			<point x="415" y="-12"/>
			<point x="506" y="73"/>
			<point x="506" y="186" type="curve" smooth="yes"/>
			<point x="506" y="424"/>
			<point x="98" y="340"/>
			<point x="98" y="547" type="curve" smooth="yes"/>
			<point x="98" y="627"/>
			<point x="159" y="692"/>
			<point x="263" y="692" type="curve" smooth="yes"/>
			<point x="356" y="692"/>
			<point x="455" y="641"/>
			<point x="460" y="504" type="curve"/>
			<point x="472" y="504" type="line"/>
			<point x="472" y="657" type="line"/>
			<point x="405" y="688"/>
			<point x="348" y="704"/>
			<point x="285" y="704" type="curve" smooth="yes"/>
			<point x="137" y="704"/>
			<point x="59" y="617"/>
			<point x="59" y="517" type="curve" smooth="yes"/>
			<point x="59" y="289"/>
			<point x="467" y="380"/>
			<point x="467" y="154" type="curve" smooth="yes"/>
			<point x="467" y="65"/>
			<point x="403" y="0"/>
			<point x="281" y="0" type="curve" smooth="yes"/>
			<point x="161" y="0"/>
			<point x="85" y="62"/>
			<point x="74" y="215" type="curve"/>
			<point x="62" y="215" type="line"/>
			<point x="50" y="48" type="line"/>
			<point x="89" y="22"/>
			<point x="170" y="-12"/>
		</contour>
	</outline>
</glyph>
<glyph name="W" format="2">
	<advance width="984"/>
	<unicode hex="0057"/>
	<anchor x="496" y="0" name="bottom"/>
	<anchor x="496" y="640" name="top"/>
	<outline>
		<contour>
			<point x="281" y="-12" type="line"/>
			<point x="291" y="-11"/>
			<point x="302" y="-4"/>
			<point x="311" y="9" type="curve"/>
			<point x="482" y="646" type="line"/>
			<point x="685" y="-12" type="line"/>
			<point x="695" y="-9"/>
			<point x="706" y="-4"/>
			<point x="714" y="9" type="curve"/>
			<point x="910" y="692" type="line" name="_corner00"/>
			<point x="889" y="692" type="line" name="_corner01"/>
			<point x="714" y="67" type="line"/>
			<point x="712" y="67" type="line"/>
			<point x="518" y="703" type="line"/>
			<point x="497" y="701"/>
			<point x="488" y="697"/>
			<point x="475" y="683" type="curve"/>
			<point x="310" y="69" type="line"/>
			<point x="308" y="69" type="line"/>
			<point x="128" y="692" type="line" name="_corner02"/>
			<point x="74" y="692" type="line" name="_corner03"/>
		</contour>
	</outline>
</glyph>
<glyph name="Y" format="2">
	<advance width="628"/>
	<unicode hex="0059"/>
	<anchor x="302" y="0" name="bottom"/>
	<anchor x="332" y="640" name="top"/>
	<anchor x="-8" y="640" name="topleft"/>
	<outline>
		<contour>
			<point x="294" y="0" type="line" name="_corner00"/>
			<point x="344" y="0" type="line" name="_corner01"/>
			<point x="344" y="289" type="line"/>
			<point x="524" y="618" type="line" smooth="yes"/>
			<point x="549" y="664"/>
			<point x="589" y="680"/>
			<point x="616" y="680" type="curve"/>
			<point x="616" y="692" type="line"/>
			<point x="419" y="692" type="line"/>
			<point x="419" y="680" type="line"/>
			<point x="497" y="680"/>
			<point x="533" y="662"/>
			<point x="501" y="603" type="curve" smooth="yes"/>
			<point x="337" y="304" type="line"/>
			<point x="335" y="304" type="line"/>
			<point x="155" y="611" type="line" smooth="yes"/>
			<point x="131" y="652"/>
			<point x="124" y="680"/>
			<point x="219" y="680" type="curve"/>
			<point x="219" y="692" type="line"/>
			<point x="12" y="692" type="line"/>
			<point x="12" y="680" type="line"/>
			<point x="39" y="680"/>
			<point x="62" y="668"/>
			<point x="94" y="615" type="curve" smooth="yes"/>
			<point x="294" y="280" type="line"/>
		</contour>
	</outline>
</glyph>
<glyph name="a" format="2">
	<advance width="472"/>
	<unicode hex="0061"/>
	<anchor x="220" y="0" name="bottom"/>
	<anchor x="401" y="10" name="ogonek"/>
	<anchor x="220" y="478" name="top"/>
	<outline>
		<contour>
			<point x="345" y="261" type="curve"/>
			<point x="345" y="275" type="line"/>
			<point x="78" y="223"/>
			<point x="35" y="150"/>
			<point x="35" y="88" type="curve" smooth="yes"/>
			<point x="35" y="22"/>
			<point x="87" y="-12"/>
			<point x="151" y="-12" type="curve" smooth="yes"/>
			<point x="240" y="-12"/>
			<point x="303" y="56"/>
			<point x="343" y="114" type="curve"/>
			<point x="330" y="105" type="line"/>
			<point x="364" y="-12" type="line"/>
			<point x="452" y="37" type="line"/>
			<point x="452" y="47" type="line"/>
			<point x="410" y="32"/>
			<point x="377" y="50"/>
			<point x="377" y="124" type="curve" smooth="yes"/>
			<point x="377" y="322" type="line" smooth="yes"/>
			<point x="377" y="428"/>
			<point x="308" y="490"/>
			<point x="217" y="490" type="curve" smooth="yes"/>
			<point x="142" y="490"/>
			<point x="62" y="448"/>
			<point x="44" y="343" type="curve"/>
			<point x="54" y="341" type="line"/>
			<point x="80" y="430"/>
			<point x="140" y="459"/>
			<point x="201" y="459" type="curve" smooth="yes"/>
			<point x="280" y="459"/>
			<point x="332" y="408"/>
			<point x="332" y="311" type="curve" smooth="yes"/>
			<point x="332" y="118" type="line"/>
			<point x="308" y="85"/>
			<point x="254" y="20"/>
			<point x="170" y="20" type="curve" smooth="yes"/>
			<point x="125" y="20"/>
			<point x="82" y="39"/>
			<point x="82" y="99" type="curve" smooth="yes"/>
			<point x="82" y="149"/>
			<point x="112" y="206"/>
		</contour>
	</outline>
</glyph>
<glyph name="k" format="2">
	<advance width="499"/>
	<unicode hex="006B"/>
	<anchor x="287" y="0" name="bottom"/>
	<anchor x="252" y="800" name="top"/>
	<outline>
		<contour>
			<point x="107" y="0" type="line" name="_corner00"/>
			<point x="152" y="0" type="line" name="_corner01"/>
			<point x="152" y="730" type="line"/>
			<point x="142" y="730" type="line"/>
			<point x="27" y="682" type="line"/>
			<point x="27" y="672" type="line"/>
			<point x="81" y="687"/>
			<point x="107" y="668"/>
			<point x="107" y="622" type="curve" smooth="yes"/>
		</contour>
		<contour>
			<point x="412" y="0" type="line"/>
			<point x="494" y="0" type="line"/>
			<point x="494" y="10" type="line"/>
			<point x="472" y="14"/>
			<point x="443" y="36"/>
			<point x="422" y="66" type="curve" smooth="yes"/>
			<point x="251" y="307" type="line"/>
			<point x="217" y="274" type="line"/>
		</contour>
		<contour>
			<point x="133" y="176" type="line"/>
			<point x="339" y="392" type="line" smooth="yes"/>
			<point x="387" y="443"/>
			<point x="423" y="468"/>
			<point x="477" y="468" type="curve"/>
			<point x="477" y="478" type="line" name="❌"/>
			<point x="287" y="478" type="line" name="❌"/>
			<point x="287" y="468" type="line"/>
			<point x="334" y="468"/>
			<point x="357" y="429"/>
			<point x="314" y="383" type="curve" smooth="yes"/>
			<point x="133" y="193" type="line"/>
		</contour>
	</outline>
</glyph>
<glyph name="l" format="2">
	<advance width="256"/>
	<unicode hex="006C"/>
	<anchor x="137" y="0" name="bottom"/>
	<anchor x="154" y="400" name="center"/>
	<anchor x="137" y="640" name="top"/>
	<anchor x="177" y="730" name="topright"/>
	<outline>
		<contour>
			<point x="107" y="0" type="line" name="_corner01"/>
			<point x="152" y="0" type="line" name="_corner00"/>
			<point x="152" y="730" type="line"/>
			<point x="142" y="730" type="line"/>
			<point x="27" y="682" type="line"/>
			<point x="27" y="672" type="line"/>
			<point x="81" y="687"/>
			<point x="107" y="668"/>
			<point x="107" y="622" type="curve" smooth="yes"/>
		</contour>
	</outline>
</glyph>
<glyph name="n" format="2">
	<advance width="556"/>
	<unicode hex="006E"/>
	<anchor x="278" y="0" name="bottom"/>
	<anchor x="278" y="478" name="top"/>
	<outline>
		<contour>
			<point x="107" y="0" type="line" name="_corner00"/>
			<point x="152" y="0" type="line" name="_corner02"/>
			<point x="152" y="360" type="line"/>
			<point x="172" y="398"/>
			<point x="221" y="450"/>
			<point x="302" y="450" type="curve" smooth="yes"/>
			<point x="371" y="450"/>
			<point x="407" y="413"/>
			<point x="407" y="335" type="curve" smooth="yes"/>
			<point x="407" y="0" type="line" name="_corner01"/>
			<point x="452" y="0" type="line" name="_corner03"/>
			<point x="452" y="342" type="line" smooth="yes"/>
			<point x="452" y="433"/>
			<point x="405" y="490"/>
			<point x="321" y="490" type="curve" smooth="yes"/>
			<point x="231" y="490"/>
			<point x="172" y="424"/>
			<point x="145" y="371" type="curve"/>
			<point x="150" y="375" type="line"/>
			<point x="140" y="484" type="line"/>
			<point x="27" y="438" type="line"/>
			<point x="27" y="428" type="line"/>
			<point x="79" y="442"/>
			<point x="107" y="421"/>
			<point x="107" y="370" type="curve" smooth="yes"/>
		</contour>
	</outline>
</glyph>
<glyph name="t" format="2">
	<advance width="318"/>
	<unicode hex="0074"/>
	<anchor x="172" y="0" name="bottom"/>
	<anchor x="147" y="239" name="center"/>
	<anchor x="147" y="477" name="top"/>
	<anchor x="128" y="730" name="topright"/>
	<outline>
		<contour>
			<point x="286" y="468" type="line"/>
			<point x="286" y="478" type="line"/>
			<point x="128" y="478" type="line"/>
			<point x="128" y="610" type="line"/>
			<point x="118" y="610" type="line"/>
			<point x="104" y="527"/>
			<point x="83" y="497"/>
			<point x="15" y="478" type="curve"/>
			<point x="15" y="468" type="line"/>
			<point x="83" y="468" type="line"/>
			<point x="83" y="120" type="line" smooth="yes"/>
			<point x="83" y="38"/>
			<point x="116" y="-12"/>
			<point x="174" y="-12" type="curve" smooth="yes"/>
			<point x="229" y="-12"/>
			<point x="276" y="32"/>
			<point x="303" y="84" type="curve"/>
			<point x="296" y="89" type="line"/>
			<point x="272" y="54"/>
			<point x="236" y="31"/>
			<point x="197" y="31" type="curve" smooth="yes"/>
			<point x="152" y="31"/>
			<point x="128" y="56"/>
			<point x="128" y="139" type="curve" smooth="yes"/>
			<point x="128" y="468" type="line"/>
		</contour>
	</outline>
</glyph>
<glyph name="u" format="2">
	<advance width="536"/>
	<unicode hex="0075"/>
	<anchor x="281" y="0" name="bottom"/>
	<anchor x="452" y="10" name="ogonek"/>
	<anchor x="261" y="478" name="top"/>
	<anchor x="430" y="478" name="topright"/>
	<outline>
		<contour>
			<point x="218" y="-12" type="curve" smooth="yes"/>
			<point x="301" y="-12"/>
			<point x="360" y="53"/>
			<point x="387" y="106" type="curve"/>
			<point x="389" y="106" type="line"/>
			<point x="413" y="-12" type="line"/>
			<point x="510" y="37" type="line"/>
			<point x="510" y="47" type="line"/>
			<point x="444" y="43"/>
			<point x="430" y="87"/>
			<point x="430" y="133" type="curve" smooth="yes"/>
			<point x="430" y="478" type="line"/>
			<point x="420" y="478" type="line"/>
			<point x="305" y="438" type="line"/>
			<point x="305" y="428" type="line"/>
			<point x="371" y="428"/>
			<point x="385" y="419"/>
			<point x="385" y="365" type="curve" smooth="yes"/>
			<point x="385" y="122" type="line"/>
			<point x="349" y="56"/>
			<point x="297" y="26"/>
			<point x="240" y="26" type="curve" smooth="yes"/>
			<point x="193" y="26"/>
			<point x="140" y="52"/>
			<point x="140" y="153" type="curve" smooth="yes"/>
			<point x="140" y="478" type="line"/>
			<point x="130" y="478" type="line"/>
			<point x="15" y="438" type="line"/>
			<point x="15" y="428" type="line"/>
			<point x="81" y="428"/>
			<point x="95" y="419"/>
			<point x="95" y="365" type="curve" smooth="yes"/>
			<point x="95" y="130" type="line" smooth="yes"/>
			<point x="95" y="37"/>
			<point x="149" y="-12"/>
		</contour>
	</outline>
</glyph>
<glyph name="x" format="2">
	<advance width="460"/>
	<unicode hex="0078"/>
	<guideline x="15" y="223" angle="90"/>
	<guideline x="461" y="218" angle="90"/>
	<anchor x="243" y="0" name="bottom"/>
	<anchor x="247" y="478" name="top"/>
	<outline>
		<contour>
			<point x="296" y="0" type="line"/>
			<point x="455" y="0" type="line"/>
			<point x="455" y="10" type="line"/>
			<point x="416" y="16"/>
			<point x="394" y="44"/>
			<point x="365" y="86" type="curve" smooth="yes"/>
			<point x="143" y="403" type="line" smooth="yes"/>
			<point x="110" y="450"/>
			<point x="125" y="468"/>
			<point x="164" y="468" type="curve"/>
			<point x="164" y="478" type="line"/>
			<point x="10" y="478" type="line"/>
			<point x="10" y="468" type="line"/>
			<point x="31" y="466"/>
			<point x="57" y="455"/>
			<point x="73" y="432" type="curve" smooth="yes"/>
			<point x="330" y="65" type="line" smooth="yes"/>
			<point x="351" y="35"/>
			<point x="347" y="10"/>
			<point x="306" y="10" type="curve" smooth="yes"/>
			<point x="296" y="10" type="line"/>
		</contour>
		<contour>
			<point x="5" y="0" type="line"/>
			<point x="189" y="0" type="line"/>
			<point x="189" y="10" type="line"/>
			<point x="178" y="10" type="line" smooth="yes"/>
			<point x="117" y="10"/>
			<point x="95" y="35"/>
			<point x="123" y="76" type="curve" smooth="yes"/>
			<point x="230" y="229" type="line"/>
			<point x="223" y="240" type="line"/>
			<point x="91" y="58" type="line" smooth="yes"/>
			<point x="70" y="28"/>
			<point x="34" y="10"/>
			<point x="5" y="10" type="curve"/>
		</contour>
		<contour>
			<point x="240" y="239" type="line"/>
			<point x="367" y="424" type="line" smooth="yes"/>
			<point x="384" y="449"/>
			<point x="414" y="466"/>
			<point x="448" y="468" type="curve"/>
			<point x="448" y="478" type="line"/>
			<point x="284" y="478" type="line"/>
			<point x="284" y="468" type="line"/>
			<point x="339" y="468"/>
			<point x="360" y="440"/>
			<point x="333" y="400" type="curve" smooth="yes"/>
			<point x="233" y="252" type="line"/>
		</contour>
	</outline>
</glyph>
<glyph name="asciitilde" format="2">
	<advance width="575"/>
	<unicode hex="007E"/>
	<outline>
		<contour>
			<point x="109" y="216" type="line"/>
			<point x="126" y="270"/>
			<point x="152" y="293"/>
			<point x="195" y="293" type="curve" smooth="yes"/>
			<point x="267" y="293"/>
			<point x="299" y="223"/>
			<point x="376" y="223" type="curve" smooth="yes"/>
			<point x="434" y="223"/>
			<point x="470" y="261"/>
			<point x="492" y="314" type="curve"/>
			<point x="466" y="325" type="line"/>
			<point x="446" y="280"/>
			<point x="423" y="251"/>
			<point x="377" y="251" type="curve" smooth="yes"/>
			<point x="307" y="251"/>
			<point x="280" y="321"/>
			<point x="196" y="321" type="curve" smooth="yes"/>
			<point x="138" y="321"/>
			<point x="102" y="290"/>
			<point x="82" y="226" type="curve"/>
		</contour>
	</outline>
</glyph>
<glyph name="yen" format="2">
	<advance width="583"/>
	<unicode hex="00A5"/>
	<outline>
		<contour>
			<point x="272" y="0" type="line" name="_corner00"/>
			<point x="322" y="0" type="line" name="_corner01"/>
			<point x="322" y="289" type="line"/>
			<point x="503" y="576" type="line" smooth="yes"/>
			<point x="532" y="622"/>
			<point x="568" y="638"/>
			<point x="595" y="638" type="curve"/>
			<point x="595" y="650" type="line"/>
			<point x="390" y="650" type="line"/>
			<point x="390" y="638" type="line"/>
			<point x="470" y="638"/>
			<point x="511" y="619"/>
			<point x="475" y="561" type="curve" smooth="yes"/>
			<point x="317" y="309" type="line"/>
			<point x="315" y="309" type="line"/>
			<point x="143" y="569" type="line" smooth="yes"/>
			<point x="116" y="610"/>
			<point x="112" y="638"/>
			<point x="207" y="638" type="curve"/>
			<point x="207" y="650" type="line"/>
			<point x="-10" y="650" type="line"/>
			<point x="-10" y="638" type="line"/>
			<point x="17" y="638"/>
			<point x="37" y="624"/>
			<point x="72" y="573" type="curve" smooth="yes"/>
			<point x="272" y="280" type="line"/>
		</contour>
		<contour>
			<point x="125" y="309" type="line"/>
			<point x="278" y="309" type="line"/>
			<point x="278" y="321" type="line"/>
			<point x="125" y="321" type="line"/>
		</contour>
		<contour>
			<point x="125" y="209" type="line"/>
			<point x="466" y="209" type="line"/>
			<point x="466" y="221" type="line"/>
			<point x="125" y="221" type="line"/>
		</contour>
		<contour>
			<point x="333" y="309" type="line"/>
			<point x="466" y="309" type="line"/>
			<point x="466" y="321" type="line"/>
			<point x="333" y="321" type="line"/>
		</contour>
	</outline>
</glyph>
<glyph name="copyright" format="2">
	<advance width="862"/>
	<unicode hex="00A9"/>
	<outline>
		<contour>
			<point x="431" y="-40" type="curve" smooth="yes"/>
			<point x="655" y="-40"/>
			<point x="817" y="133"/>
			<point x="817" y="346" type="curve" smooth="yes"/>
			<point x="817" y="560"/>
			<point x="655" y="732" name="❌"/>
			<point x="431" y="732" type="curve" smooth="yes" name="❌"/>
			<point x="208" y="732" name="❌"/>
			<point x="45" y="560"/>
			<point x="45" y="346" type="curve" smooth="yes"/>
			<point x="45" y="133"/>
			<point x="208" y="-40"/>
		</contour>
		<contour>
			<point x="424" y="124" type="curve" smooth="yes"/>
			<point x="503" y="124"/>
			<point x="564" y="171"/>
			<point x="596" y="250" type="curve"/>
			<point x="586" y="254" type="line"/>
			<point x="561" y="199"/>
			<point x="513" y="156"/>
			<point x="443" y="156" type="curve" smooth="yes"/>
			<point x="350" y="156"/>
			<point x="288" y="228"/>
			<point x="288" y="355" type="curve" smooth="yes"/>
			<point x="288" y="491"/>
			<point x="358" y="557"/>
			<point x="442" y="557" type="curve" smooth="yes"/>
			<point x="493" y="557"/>
			<point x="548" y="534"/>
			<point x="571" y="397" type="curve"/>
			<point x="581" y="397" type="line"/>
			<point x="574" y="532" type="line"/>
			<point x="542" y="554" name="❌"/>
			<point x="492" y="570"/>
			<point x="442" y="570" type="curve" smooth="yes"/>
			<point x="317" y="570"/>
			<point x="240" y="467"/>
			<point x="240" y="340" type="curve" smooth="yes"/>
			<point x="240" y="213"/>
			<point x="316" y="124"/>
		</contour>
		<contour>
			<point x="431" y="-28" type="curve" smooth="yes"/>
			<point x="218" y="-28"/>
			<point x="60" y="133"/>
			<point x="60" y="346" type="curve" smooth="yes"/>
			<point x="60" y="560"/>
			<point x="218" y="720"/>
			<point x="431" y="720" type="curve" smooth="yes"/>
			<point x="645" y="720"/>
			<point x="802" y="560"/>
			<point x="802" y="346" type="curve" smooth="yes"/>
			<point x="802" y="133"/>
			<point x="645" y="-28"/>
		</contour>
	</outline>
</glyph>
<glyph name="logicalnot" format="2">
	<advance width="600"/>
	<unicode hex="00AC"/>
	<outline>
		<contour>
			<point x="440" y="152" type="line"/>
			<point x="471" y="152" type="line"/>
			<point x="471" y="352" type="line"/>
			<point x="70" y="352" type="line"/>
			<point x="70" y="322" type="line"/>
			<point x="440" y="322" type="line" name="🧨"/>
		</contour>
	</outline>
</glyph>
<glyph name="twosuperior" format="2">
	<advance width="309"/>
	<unicode hex="00B2"/>
	<outline>
		<contour>
			<point x="26" y="387" type="line"/>
			<point x="254" y="387" type="line"/>
			<point x="268" y="512" type="line"/>
			<point x="258" y="512" type="line"/>
			<point x="246" y="439"/>
			<point x="226" y="426"/>
			<point x="187" y="426" type="curve" smooth="yes"/>
			<point x="74" y="426" type="line"/>
			<point x="74" y="424" type="line"/>
			<point x="150" y="483" type="line" smooth="yes"/>
			<point x="193" y="516"/>
			<point x="250" y="563"/>
			<point x="250" y="622" type="curve" smooth="yes"/>
			<point x="250" y="667"/>
			<point x="216" y="704"/>
			<point x="150" y="704" type="curve" smooth="yes"/>
			<point x="84" y="704"/>
			<point x="45" y="667"/>
			<point x="29" y="588" type="curve"/>
			<point x="39" y="586" type="line"/>
			<point x="57" y="648"/>
			<point x="85" y="673"/>
			<point x="133" y="673" type="curve" smooth="yes"/>
			<point x="177" y="673"/>
			<point x="205" y="652"/>
			<point x="205" y="605" type="curve" smooth="yes"/>
			<point x="205" y="541"/>
			<point x="154" y="502"/>
			<point x="118" y="474" type="curve" smooth="yes"/>
			<point x="21" y="399" type="line"/>
		</contour>
	</outline>
</glyph>
<glyph name="paragraph" format="2">
	<advance width="527"/>
	<unicode hex="00B6"/>
	<outline>
		<contour>
			<point x="240" y="-130" type="line"/>
			<point x="252" y="-130" type="line"/>
			<point x="252" y="680" type="line"/>
			<point x="400" y="680" type="line"/>
			<point x="400" y="-130" type="line"/>
			<point x="412" y="-130" type="line"/>
			<point x="412" y="680" type="line"/>
			<point x="487" y="680" type="line"/>
			<point x="487" y="692" type="line"/>
			<point x="242" y="692" type="line" smooth="yes"/>
			<point x="114" y="692"/>
			<point x="40" y="621"/>
			<point x="40" y="521" type="curve" smooth="yes"/>
			<point x="40" y="420"/>
			<point x="103" y="349"/>
			<point x="240" y="349" type="curve"/>
		</contour>
	</outline>
</glyph>
<glyph name="multiply" format="2">
	<advance width="541"/>
	<unicode hex="00D7"/>
	<outline>
		<contour>
			<point x="409" y="123" type="line"/>
			<point x="430" y="144" type="line"/>
			<point x="132" y="443" type="line"/>
			<point x="111" y="422" type="line"/>
		</contour>
		<contour>
			<point x="132" y="124" type="line"/>
			<point x="430" y="421" type="line"/>
			<point x="409" y="442" type="line"/>
			<point x="111" y="145" type="line"/>
		</contour>
	</outline>
</glyph>
<glyph name="divide" format="2">
	<advance width="541"/>
	<unicode hex="00F7"/>
	<outline>
		<contour>
			<point x="270" y="375" type="curve" smooth="yes"/>
			<point x="295" y="375"/>
			<point x="315" y="395"/>
			<point x="315" y="420" type="curve" smooth="yes"/>
			<point x="315" y="444"/>
			<point x="295" y="464"/>
			<point x="270" y="464" type="curve" smooth="yes"/>
			<point x="246" y="464"/>
			<point x="226" y="444"/>
			<point x="226" y="420" type="curve" smooth="yes"/>
			<point x="226" y="395"/>
			<point x="246" y="375"/>
		</contour>
		<contour>
			<point x="270" y="82" type="curve" smooth="yes"/>
			<point x="295" y="82"/>
			<point x="315" y="102"/>
			<point x="315" y="127" type="curve" smooth="yes"/>
			<point x="315" y="151"/>
			<point x="295" y="171"/>
			<point x="270" y="171" type="curve" smooth="yes"/>
			<point x="246" y="171"/>
			<point x="226" y="151"/>
			<point x="226" y="127" type="curve" smooth="yes"/>
			<point x="226" y="102"/>
			<point x="246" y="82"/>
		</contour>
		<contour>
			<point x="70" y="267" type="line"/>
			<point x="471" y="267" type="line"/>
			<point x="471" y="297" type="line"/>
			<point x="70" y="297" type="line"/>
		</contour>
	</outline>
</glyph>
<glyph name="thorn" format="2">
	<advance width="547"/>
	<unicode hex="00FE"/>
	<outline>
		<contour>
			<point x="107" y="-208" type="line" name="_corner01"/>
			<point x="152" y="-208" type="line" name="_corner00"/>
			<point x="152" y="21" type="line"/>
			<point x="185" y="1"/>
			<point x="230" y="-11"/>
			<point x="275" y="-11" type="curve" smooth="yes"/>
			<point x="394" y="-11"/>
			<point x="503" y="77"/>
			<point x="503" y="255" type="curve" smooth="yes"/>
			<point x="503" y="407"/>
			<point x="424" y="490"/>
			<point x="323" y="490" type="curve" smooth="yes"/>
			<point x="255" y="490"/>
			<point x="194" y="453"/>
			<point x="158" y="393" type="curve"/>
			<point x="152" y="393" type="line"/>
			<point x="152" y="730" type="line"/>
			<point x="142" y="730" type="line"/>
			<point x="27" y="682" type="line"/>
			<point x="27" y="672" type="line"/>
			<point x="81" y="687"/>
			<point x="107" y="668"/>
			<point x="107" y="622" type="curve" smooth="yes"/>
		</contour>
		<contour>
			<point x="276" y="4" type="curve" smooth="yes"/>
			<point x="217" y="4"/>
			<point x="168" y="32"/>
			<point x="152" y="69" type="curve"/>
			<point x="152" y="360" type="line"/>
			<point x="179" y="407"/>
			<point x="225" y="450"/>
			<point x="303" y="450" type="curve" smooth="yes"/>
			<point x="404" y="450"/>
			<point x="455" y="377"/>
			<point x="455" y="249" type="curve" smooth="yes"/>
			<point x="455" y="96"/>
			<point x="382" y="4"/>
		</contour>
	</outline>
</glyph>
<glyph name="idotless" format="2">
	<advance width="256"/>
	<unicode hex="0131"/>
	<anchor x="130" y="0" name="bottom"/>
	<anchor x="196" y="0" name="ogonek"/>
	<anchor x="129" y="478" name="top"/>
	<outline>
		<contour>
			<point x="107" y="0" type="line" name="_corner01"/>
			<point x="152" y="0" type="line" name="_corner00"/>
			<point x="152" y="478" type="line"/>
			<point x="142" y="478" type="line"/>
			<point x="27" y="430" type="line"/>
			<point x="27" y="420" type="line"/>
			<point x="81" y="435"/>
			<point x="107" y="416"/>
			<point x="107" y="370" type="curve" smooth="yes"/>
		</contour>
	</outline>
</glyph>
<glyph name="OE" format="2">
	<advance width="922"/>
	<unicode hex="0152"/>
	<anchor x="461" y="0" name="bottom"/>
	<anchor x="461" y="692" name="top"/>
	<outline>
		<contour>
			<point x="389" y="0" type="curve" smooth="yes"/>
			<point x="471" y="0" type="line"/>
			<point x="471" y="12" type="line" name="🧨"/>
			<point x="397" y="12" type="line" smooth="yes"/>
			<point x="216" y="12"/>
			<point x="109" y="166"/>
			<point x="109" y="364" type="curve" smooth="yes"/>
			<point x="109" y="563"/>
			<point x="216" y="680"/>
			<point x="381" y="680" type="curve" smooth="yes"/>
			<point x="471" y="680" type="line" name="🧨"/>
			<point x="471" y="692" type="line"/>
			<point x="389" y="692" type="line" smooth="yes"/>
			<point x="211" y="692"/>
			<point x="54" y="561"/>
			<point x="54" y="346" type="curve" smooth="yes"/>
			<point x="54" y="131"/>
			<point x="211" y="0"/>
		</contour>
		<contour>
			<point x="480" y="0" type="line"/>
			<point x="852" y="0" type="line"/>
			<point x="882" y="215" type="line"/>
			<point x="870" y="215" type="line"/>
			<point x="827" y="48"/>
			<point x="761" y="12"/>
			<point x="686" y="12" type="curve" smooth="yes"/>
			<point x="480" y="12" type="line" name="🧨"/>
		</contour>
		<contour>
			<point x="450" y="0" type="line"/>
			<point x="500" y="0" type="line" name="🔥"/>
			<point x="500" y="692" type="line"/>
			<point x="450" y="692" type="line"/>
		</contour>
		<contour>
			<point x="731" y="230" type="curve"/>
			<point x="741" y="230" type="line"/>
			<point x="741" y="482" type="line"/>
			<point x="731" y="482" type="line"/>
			<point x="727" y="401"/>
			<point x="712" y="360"/>
			<point x="642" y="360" type="curve" smooth="yes"/>
			<point x="498" y="360" type="line"/>
			<point x="498" y="348" type="line"/>
			<point x="642" y="348" type="line" smooth="yes"/>
			<point x="712" y="348"/>
			<point x="728" y="297"/>
		</contour>
		<contour>
			<point x="860" y="487" type="curve"/>
			<point x="872" y="487" type="line"/>
			<point x="842" y="692" type="line"/>
			<point x="480" y="692" type="line" name="🔥"/>
			<point x="480" y="680" type="line" name="🧨"/>
			<point x="676" y="680" type="line" smooth="yes"/>
			<point x="805" y="680"/>
			<point x="839" y="574"/>
		</contour>
	</outline>
</glyph>
<glyph name="florin" format="2">
	<advance width="338"/>
	<unicode hex="0192"/>
	<note>
		uni0192
	</note>
	<outline>
		<contour>
			<point x="-13" y="-220" type="line"/>
			<point x="72" y="-204"/>
			<point x="112" y="-134"/>
			<point x="126" y="0" type="curve" smooth="yes"/>
			<point x="176" y="478" type="line" name="🧨"/>
			<point x="162" y="494"/>
			<point x="155" y="521"/>
			<point x="155" y="551" type="curve" smooth="yes"/>
			<point x="155" y="617"/>
			<point x="189" y="688"/>
			<point x="256" y="688" type="curve" smooth="yes"/>
			<point x="299" y="688"/>
			<point x="321" y="659"/>
			<point x="324" y="624" type="curve"/>
			<point x="334" y="624" type="line"/>
			<point x="344" y="717" type="line"/>
			<point x="330" y="723"/>
			<point x="310" y="730"/>
			<point x="284" y="730" type="curve" smooth="yes"/>
			<point x="211" y="730"/>
			<point x="152" y="676"/>
			<point x="139" y="553" type="curve" smooth="yes"/>
			<point x="81" y="0" type="line" smooth="yes"/>
			<point x="69" y="-115"/>
			<point x="61" y="-183"/>
			<point x="-15" y="-211" type="curve"/>
		</contour>
		<contour>
			<point x="59" y="457" type="line"/>
			<point x="303" y="457" type="line"/>
			<point x="305" y="478" type="line"/>
			<point x="131" y="478" type="line" name="🧨"/>
			<point x="60" y="467" type="line"/>
		</contour>
	</outline>
</glyph>
<glyph name="jdotless" format="2">
	<advance width="215"/>
	<unicode hex="0237"/>
	<anchor x="108" y="-200" name="bottom"/>
	<anchor x="118" y="478" name="top"/>
	<outline>
		<contour>
			<point x="-2" y="-220" type="line"/>
			<point x="110" y="-204"/>
			<point x="154" y="-136"/>
			<point x="154" y="0" type="curve" smooth="yes"/>
			<point x="154" y="478" type="line"/>
			<point x="144" y="478" type="line"/>
			<point x="29" y="430" type="line"/>
			<point x="29" y="420" type="line"/>
			<point x="83" y="435"/>
			<point x="109" y="416"/>
			<point x="109" y="370" type="curve" smooth="yes"/>
			<point x="109" y="20" type="line" smooth="yes"/>
			<point x="109" y="-111"/>
			<point x="107" y="-180"/>
			<point x="-5" y="-211" type="curve"/>
		</contour>
	</outline>
</glyph>
<glyph name="gravecomb" format="2">
	<advance width="255"/>
	<unicode hex="0300"/>
	<anchor x="168" y="478" name="_top"/>
	<anchor x="104" y="704" name="top"/>
	<outline>
		<contour>
			<point x="192" y="534" type="line"/>
			<point x="202" y="542" type="line"/>
			<point x="92" y="704" type="line"/>
			<point x="27" y="704" type="line"/>
			<point x="27" y="694" type="line"/>
		</contour>
	</outline>
</glyph>
<glyph name="tildecomb" format="2">
	<advance width="352"/>
	<unicode hex="0303"/>
	<anchor x="176" y="478" name="_top"/>
	<anchor x="176" y="665" name="top"/>
	<outline>
		<contour>
			<point x="56" y="563" type="line"/>
			<point x="72" y="589"/>
			<point x="95" y="602"/>
			<point x="115" y="602" type="curve" smooth="yes"/>
			<point x="150" y="602"/>
			<point x="180" y="563"/>
			<point x="219" y="563" type="curve" smooth="yes"/>
			<point x="248" y="563"/>
			<point x="278" y="585"/>
			<point x="307" y="642" type="curve"/>
			<point x="298" y="647" type="line"/>
			<point x="276" y="615"/>
			<point x="258" y="606"/>
			<point x="241" y="606" type="curve" smooth="yes"/>
			<point x="205" y="606"/>
			<point x="174" y="647"/>
			<point x="131" y="647" type="curve" smooth="yes"/>
			<point x="101" y="647"/>
			<point x="74" y="628"/>
			<point x="45" y="568" type="curve"/>
		</contour>
	</outline>
</glyph>
<glyph name="brevecomb" format="2">
	<advance width="404"/>
	<unicode hex="0306"/>
	<anchor x="202" y="478" name="_top"/>
	<anchor x="202" y="692" name="top"/>
	<anchor x="202" y="605" name="top_viet"/>
	<outline>
		<contour>
			<point x="202" y="553" type="curve" smooth="yes"/>
			<point x="254" y="553"/>
			<point x="306" y="578"/>
			<point x="306" y="682" type="curve"/>
			<point x="293" y="682" type="line"/>
			<point x="289" y="613"/>
			<point x="265" y="598"/>
			<point x="202" y="598" type="curve" smooth="yes"/>
			<point x="145" y="598"/>
			<point x="114" y="619"/>
			<point x="110" y="682" type="curve"/>
			<point x="97" y="682" type="line"/>
			<point x="97" y="590"/>
			<point x="140" y="553"/>
		</contour>
	</outline>
</glyph>
<glyph name="dotaccentcomb" format="2">
	<advance width="189"/>
	<unicode hex="0307"/>
	<anchor x="100" y="478" name="_top"/>
	<anchor x="100" y="662" name="top"/>
	<outline>
		<contour>
			<point x="100" y="587" type="curve" smooth="yes"/>
			<point x="121" y="587"/>
			<point x="137" y="603"/>
			<point x="137" y="624" type="curve" smooth="yes"/>
			<point x="137" y="645"/>
			<point x="121" y="660"/>
			<point x="100" y="660" type="curve" smooth="yes"/>
			<point x="79" y="660"/>
			<point x="63" y="645"/>
			<point x="63" y="624" type="curve" smooth="yes"/>
			<point x="63" y="603"/>
			<point x="79" y="587"/>
		</contour>
	</outline>
</glyph>
<glyph name="hookabovecomb" format="2">
	<advance width="283"/>
	<unicode hex="0309"/>
	<anchor x="158" y="478" name="_top"/>
	<anchor x="158" y="723" name="top"/>
	<outline>
		<contour>
			<point x="128" y="559" type="line"/>
			<point x="211" y="579"/>
			<point x="238" y="616"/>
			<point x="238" y="654" type="curve" smooth="yes"/>
			<point x="238" y="692"/>
			<point x="211" y="723"/>
			<point x="158" y="723" type="curve" smooth="yes"/>
			<point x="96" y="723"/>
			<point x="66" y="683"/>
			<point x="45" y="649" type="curve"/>
			<point x="54" y="642" type="line"/>
			<point x="80" y="676"/>
			<point x="108" y="694"/>
			<point x="140" y="694" type="curve" smooth="yes"/>
			<point x="172" y="694"/>
			<point x="192" y="676"/>
			<point x="192" y="641" type="curve" smooth="yes"/>
			<point x="192" y="603"/>
			<point x="169" y="579"/>
			<point x="124" y="573" type="curve"/>
		</contour>
	</outline>
</glyph>
<glyph name="caroncomb" format="2">
	<advance width="330"/>
	<unicode hex="030C"/>
	<anchor x="165" y="477" name="_top"/>
	<anchor x="165" y="544" name="bottom"/>
	<anchor x="165" y="723" name="top"/>
	<outline>
		<contour>
			<point x="161" y="544" type="line"/>
			<point x="169" y="544" type="line"/>
			<point x="289" y="690" type="line"/>
			<point x="280" y="699" type="line"/>
			<point x="165" y="613" type="line"/>
			<point x="50" y="699" type="line"/>
			<point x="41" y="690" type="line"/>
		</contour>
	</outline>
</glyph>
<glyph name="horncomb" format="2">
	<advance width="210"/>
	<unicode hex="031B"/>
	<anchor x="55" y="478" name="_topright"/>
	<anchor x="216" y="558" name="topright"/>
	<outline>
		<contour>
			<point x="45" y="370" type="line"/>
			<point x="116" y="376"/>
			<point x="165" y="431"/>
			<point x="165" y="499" type="curve" smooth="yes"/>
			<point x="165" y="518"/>
			<point x="162" y="532"/>
			<point x="157" y="547" type="curve"/>
			<point x="65" y="547" type="line"/>
			<point x="65" y="537" type="line"/>
			<point x="106" y="534"/>
			<point x="121" y="502"/>
			<point x="121" y="470" type="curve" smooth="yes"/>
			<point x="121" y="416"/>
			<point x="80" y="380"/>
			<point x="45" y="380" type="curve"/>
		</contour>
	</outline>
</glyph>
<glyph name="dotbelowcomb" format="2">
	<advance width="169"/>
	<unicode hex="0323"/>
	<anchor x="84" y="0" name="_bottom"/>
	<anchor x="84" y="-162" name="bottom"/>
	<outline>
		<contour>
			<point x="84" y="-153" type="curve" smooth="yes"/>
			<point x="107" y="-153"/>
			<point x="124" y="-136"/>
			<point x="124" y="-113" type="curve" smooth="yes"/>
			<point x="124" y="-91"/>
			<point x="107" y="-74"/>
			<point x="84" y="-74" type="curve" smooth="yes"/>
			<point x="62" y="-74"/>
			<point x="45" y="-91"/>
			<point x="45" y="-113" type="curve" smooth="yes"/>
			<point x="45" y="-136"/>
			<point x="62" y="-153"/>
		</contour>
	</outline>
</glyph>
<glyph name="slashshortcomb" format="2">
	<advance width="327"/>
	<unicode hex="0337"/>
	<anchor x="180" y="342" name="_center"/>
	<outline>
		<contour>
			<point x="45" y="279" type="line"/>
			<point x="53" y="267" type="line"/>
			<point x="282" y="422" type="line"/>
			<point x="274" y="434" type="line"/>
		</contour>
	</outline>
</glyph>
<glyph name="slashlongcomb" format="2">
	<advance width="470"/>
	<unicode hex="0338"/>
	<anchor x="236" y="239" name="_center"/>
	<outline>
		<contour>
			<point x="45" y="-1" type="line"/>
			<point x="58" y="-10" type="line"/>
			<point x="425" y="478" type="line"/>
			<point x="413" y="487" type="line"/>
		</contour>
	</outline>
</glyph>
<glyph name="mu" format="2">
	<advance width="536"/>
	<unicode hex="03BC"/>
	<outline>
		<contour>
			<point x="95" y="-164" type="line"/>
			<point x="135" y="-164" type="line"/>
			<point x="135" y="147" type="line"/>
			<point x="95" y="147" type="line" name="🧨"/>
		</contour>
		<contour>
			<point x="218" y="-12" type="curve" smooth="yes"/>
			<point x="301" y="-12"/>
			<point x="360" y="53"/>
			<point x="387" y="106" type="curve"/>
			<point x="389" y="106" type="line"/>
			<point x="413" y="-12" type="line"/>
			<point x="510" y="37" type="line"/>
			<point x="510" y="47" type="line"/>
			<point x="444" y="43"/>
			<point x="430" y="87"/>
			<point x="430" y="133" type="curve" smooth="yes"/>
			<point x="430" y="478" type="line"/>
			<point x="420" y="478" type="line"/>
			<point x="305" y="438" type="line"/>
			<point x="305" y="428" type="line"/>
			<point x="371" y="428"/>
			<point x="385" y="419"/>
			<point x="385" y="365" type="curve" smooth="yes"/>
			<point x="385" y="122" type="line"/>
			<point x="349" y="56"/>
			<point x="297" y="26"/>
			<point x="240" y="26" type="curve" smooth="yes"/>
			<point x="193" y="26"/>
			<point x="140" y="52"/>
			<point x="140" y="153" type="curve" smooth="yes"/>
			<point x="140" y="478" type="line"/>
			<point x="130" y="478" type="line"/>
			<point x="15" y="438" type="line"/>
			<point x="15" y="428" type="line"/>
			<point x="81" y="428"/>
			<point x="95" y="419"/>
			<point x="95" y="365" type="curve" smooth="yes"/>
			<point x="95" y="130" type="line" smooth="yes"/>
			<point x="95" y="37"/>
			<point x="149" y="-12"/>
		</contour>
	</outline>
</glyph>
<glyph name="pi" format="2">
	<advance width="534"/>
	<unicode hex="03C0"/>
	<outline>
		<contour>
			<point x="30" y="0" type="line"/>
			<point x="126" y="0" type="line"/>
			<point x="182" y="112"/>
			<point x="217" y="292"/>
			<point x="213" y="448" type="curve" name="🧨"/>
			<point x="198" y="448" type="line" name="🧨"/>
			<point x="203" y="285"/>
			<point x="141" y="73"/>
			<point x="30" y="10" type="curve"/>
		</contour>
		<contour>
			<point x="392" y="0" type="curve" smooth="yes"/>
			<point x="446" y="0"/>
			<point x="494" y="35"/>
			<point x="525" y="103" type="curve"/>
			<point x="516" y="109" type="line"/>
			<point x="488" y="65"/>
			<point x="460" y="46"/>
			<point x="420" y="46" type="curve" smooth="yes"/>
			<point x="374" y="46"/>
			<point x="337" y="70"/>
			<point x="337" y="166" type="curve" smooth="yes"/>
			<point x="337" y="262"/>
			<point x="374" y="372"/>
			<point x="405" y="448" type="curve" name="🧨"/>
			<point x="395" y="448" type="line" name="🧨"/>
			<point x="357" y="373"/>
			<point x="294" y="236"/>
			<point x="294" y="129" type="curve" smooth="yes"/>
			<point x="294" y="50"/>
			<point x="328" y="0"/>
		</contour>
		<contour>
			<point x="485" y="430" type="line"/>
			<point x="485" y="478" type="line"/>
			<point x="57" y="478" type="line"/>
			<point x="25" y="346" type="line"/>
			<point x="35" y="346" type="line"/>
			<point x="56" y="422"/>
			<point x="81" y="430"/>
			<point x="130" y="430" type="curve" smooth="yes"/>
		</contour>
	</outline>
</glyph>
<glyph name="baht" format="2">
	<advance width="633"/>
	<unicode hex="0E3F"/>
	<note>
		uni0E3F
	</note>
	<outline>
		<contour>
			<point x="170" y="0" type="line"/>
			<point x="350" y="0" type="line" smooth="yes"/>
			<point x="515" y="0"/>
			<point x="572" y="96"/>
			<point x="572" y="178" type="curve" smooth="yes"/>
			<point x="572" y="267"/>
			<point x="505" y="337"/>
			<point x="384" y="341" type="curve"/>
			<point x="384" y="343" type="line"/>
			<point x="492" y="349"/>
			<point x="539" y="433"/>
			<point x="539" y="503" type="curve" smooth="yes"/>
			<point x="539" y="575"/>
			<point x="488" y="652"/>
			<point x="338" y="652" type="curve" smooth="yes"/>
			<point x="170" y="652" type="line"/>
			<point x="170" y="640" type="line" name="🧨"/>
			<point x="298" y="640" type="line" smooth="yes"/>
			<point x="410" y="640"/>
			<point x="474" y="595"/>
			<point x="474" y="495" type="curve" smooth="yes"/>
			<point x="474" y="401"/>
			<point x="417" y="346"/>
			<point x="319" y="346" type="curve" smooth="yes"/>
			<point x="168" y="346" type="line"/>
			<point x="168" y="334" type="line"/>
			<point x="334" y="334" type="line" smooth="yes"/>
			<point x="442" y="334"/>
			<point x="507" y="273"/>
			<point x="507" y="174" type="curve" smooth="yes"/>
			<point x="507" y="80"/>
			<point x="452" y="12"/>
			<point x="330" y="12" type="curve" smooth="yes"/>
			<point x="170" y="12" type="line" name="🧨"/>
		</contour>
		<contour>
			<point x="130" y="0" type="line" name="_corner01"/>
			<point x="180" y="0" type="line" name="🔥"/>
			<point x="180" y="652" type="line" name="🔥"/>
			<point x="130" y="652" type="line" name="_corner00"/>
		</contour>
		<contour>
			<point x="294" y="-90" type="line"/>
			<point x="326" y="-90" type="line"/>
			<point x="326" y="730" type="line"/>
			<point x="294" y="730" type="line"/>
		</contour>
	</outline>
</glyph>
<glyph name="daggerdbl" format="2">
	<advance width="469"/>
	<unicode hex="2021"/>
	<outline>
		<contour>
			<point x="146" y="-72" type="line"/>
			<point x="323" y="-72" type="line"/>
			<point x="323" y="-60" type="line"/>
			<point x="274" y="-60"/>
			<point x="241" y="-39"/>
			<point x="241" y="2" type="curve" smooth="yes"/>
			<point x="241" y="64" type="line" smooth="yes"/>
			<point x="241" y="88"/>
			<point x="262" y="114" name="❌"/>
			<point x="291" y="114" type="curve" smooth="yes" name="❌"/>
			<point x="360" y="114" type="line" smooth="yes" name="❌"/>
			<point x="408" y="114" name="❌"/>
			<point x="417" y="82"/>
			<point x="417" y="34" type="curve"/>
			<point x="429" y="34" type="line"/>
			<point x="429" y="206" type="line"/>
			<point x="417" y="206" type="line"/>
			<point x="417" y="158"/>
			<point x="408" y="126"/>
			<point x="360" y="126" type="curve" smooth="yes"/>
			<point x="291" y="126" type="line" smooth="yes"/>
			<point x="262" y="126"/>
			<point x="241" y="152"/>
			<point x="241" y="176" type="curve" smooth="yes"/>
			<point x="241" y="242" type="line" smooth="yes"/>
			<point x="241" y="268"/>
			<point x="252" y="284"/>
			<point x="283" y="284" type="curve" smooth="yes"/>
			<point x="333" y="284" type="line"/>
			<point x="333" y="296" type="line"/>
			<point x="283" y="296" type="line" smooth="yes"/>
			<point x="252" y="296"/>
			<point x="241" y="312"/>
			<point x="241" y="340" type="curve" smooth="yes"/>
			<point x="241" y="405" type="line" smooth="yes"/>
			<point x="241" y="429"/>
			<point x="262" y="455"/>
			<point x="291" y="455" type="curve" smooth="yes"/>
			<point x="360" y="455" type="line" smooth="yes"/>
			<point x="408" y="455"/>
			<point x="417" y="423"/>
			<point x="417" y="375" type="curve"/>
			<point x="429" y="375" type="line"/>
			<point x="429" y="547" type="line"/>
			<point x="417" y="547" type="line"/>
			<point x="417" y="499"/>
			<point x="408" y="467" name="❌"/>
			<point x="360" y="467" type="curve" smooth="yes" name="❌"/>
			<point x="291" y="467" type="line" smooth="yes" name="❌"/>
			<point x="262" y="467" name="❌"/>
			<point x="241" y="493"/>
			<point x="241" y="517" type="curve" smooth="yes"/>
			<point x="241" y="579" type="line" smooth="yes"/>
			<point x="241" y="620"/>
			<point x="274" y="641"/>
			<point x="323" y="641" type="curve"/>
			<point x="323" y="653" type="line"/>
			<point x="146" y="653" type="line"/>
			<point x="146" y="641" type="line"/>
			<point x="195" y="641"/>
			<point x="228" y="620"/>
			<point x="228" y="579" type="curve" smooth="yes"/>
			<point x="228" y="517" type="line" smooth="yes"/>
			<point x="228" y="493"/>
			<point x="207" y="467" name="❌"/>
			<point x="178" y="467" type="curve" smooth="yes" name="❌"/>
			<point x="109" y="467" type="line" smooth="yes" name="❌"/>
			<point x="66" y="467" name="❌"/>
			<point x="52" y="499"/>
			<point x="52" y="547" type="curve"/>
			<point x="40" y="547" type="line"/>
			<point x="40" y="375" type="line"/>
			<point x="52" y="375" type="line"/>
			<point x="52" y="423"/>
			<point x="66" y="455"/>
			<point x="109" y="455" type="curve" smooth="yes"/>
			<point x="178" y="455" type="line" smooth="yes"/>
			<point x="207" y="455"/>
			<point x="228" y="429"/>
			<point x="228" y="405" type="curve" smooth="yes"/>
			<point x="228" y="340" type="line" smooth="yes"/>
			<point x="228" y="312"/>
			<point x="217" y="296"/>
			<point x="186" y="296" type="curve" smooth="yes"/>
			<point x="136" y="296" type="line"/>
			<point x="136" y="284" type="line"/>
			<point x="186" y="284" type="line" smooth="yes"/>
			<point x="217" y="284"/>
			<point x="228" y="268"/>
			<point x="228" y="242" type="curve" smooth="yes"/>
			<point x="228" y="176" type="line" smooth="yes"/>
			<point x="228" y="152"/>
			<point x="207" y="126"/>
			<point x="178" y="126" type="curve" smooth="yes"/>
			<point x="109" y="126" type="line" smooth="yes"/>
			<point x="66" y="126"/>
			<point x="52" y="158"/>
			<point x="52" y="206" type="curve"/>
			<point x="40" y="206" type="line"/>
			<point x="40" y="34" type="line"/>
			<point x="52" y="34" type="line"/>
			<point x="52" y="82"/>
			<point x="66" y="114" name="❌"/>
			<point x="109" y="114" type="curve" smooth="yes" name="❌"/>
			<point x="178" y="114" type="line" smooth="yes" name="❌"/>
			<point x="207" y="114" name="❌"/>
			<point x="228" y="88"/>
			<point x="228" y="64" type="curve" smooth="yes"/>
			<point x="228" y="2" type="line" smooth="yes"/>
			<point x="228" y="-39"/>
			<point x="195" y="-60"/>
			<point x="146" y="-60" type="curve"/>
		</contour>
	</outline>
</glyph>
<glyph name="perthousand" format="2">
	<advance width="1244"/>
	<unicode hex="2030"/>
	<outline>
		<contour>
			<point x="1009" y="-10" type="curve" smooth="yes"/>
			<point x="1097" y="-10"/>
			<point x="1169" y="61"/>
			<point x="1169" y="174" type="curve" smooth="yes"/>
			<point x="1169" y="286"/>
			<point x="1097" y="354"/>
			<point x="1009" y="354" type="curve" smooth="yes"/>
			<point x="922" y="354"/>
			<point x="850" y="287"/>
			<point x="850" y="174" type="curve" smooth="yes"/>
			<point x="850" y="60"/>
			<point x="922" y="-10"/>
		</contour>
		<contour>
			<point x="1009" y="0" type="curve" smooth="yes"/>
			<point x="937" y="0"/>
			<point x="895" y="68"/>
			<point x="895" y="174" type="curve" smooth="yes"/>
			<point x="895" y="280"/>
			<point x="937" y="344"/>
			<point x="1009" y="344" type="curve" smooth="yes"/>
			<point x="1082" y="344"/>
			<point x="1124" y="279"/>
			<point x="1124" y="174" type="curve" smooth="yes"/>
			<point x="1124" y="69"/>
			<point x="1082" y="0"/>
		</contour>
		<contour>
			<point x="191" y="0" type="line"/>
			<point x="214" y="0" type="line"/>
			<point x="690" y="704" type="line"/>
			<point x="667" y="704" type="line"/>
		</contour>
		<contour>
			<point x="234" y="349" type="curve" smooth="yes"/>
			<point x="322" y="349"/>
			<point x="394" y="420"/>
			<point x="394" y="533" type="curve" smooth="yes"/>
			<point x="394" y="645"/>
			<point x="322" y="713"/>
			<point x="234" y="713" type="curve" smooth="yes"/>
			<point x="147" y="713"/>
			<point x="75" y="646"/>
			<point x="75" y="533" type="curve" smooth="yes"/>
			<point x="75" y="419"/>
			<point x="147" y="349"/>
		</contour>
		<contour>
			<point x="234" y="359" type="curve" smooth="yes"/>
			<point x="162" y="359"/>
			<point x="120" y="427"/>
			<point x="120" y="533" type="curve" smooth="yes"/>
			<point x="120" y="639"/>
			<point x="162" y="703"/>
			<point x="234" y="703" type="curve" smooth="yes"/>
			<point x="307" y="703"/>
			<point x="349" y="638"/>
			<point x="349" y="533" type="curve" smooth="yes"/>
			<point x="349" y="428"/>
			<point x="307" y="359"/>
		</contour>
		<contour>
			<point x="634" y="-10" type="curve" smooth="yes"/>
			<point x="722" y="-10"/>
			<point x="794" y="61"/>
			<point x="794" y="174" type="curve" smooth="yes"/>
			<point x="794" y="286"/>
			<point x="722" y="354"/>
			<point x="634" y="354" type="curve" smooth="yes"/>
			<point x="547" y="354"/>
			<point x="475" y="287"/>
			<point x="475" y="174" type="curve" smooth="yes"/>
			<point x="475" y="60"/>
			<point x="547" y="-10"/>
		</contour>
		<contour>
			<point x="634" y="0" type="curve" smooth="yes"/>
			<point x="562" y="0"/>
			<point x="520" y="68"/>
			<point x="520" y="174" type="curve" smooth="yes"/>
			<point x="520" y="280"/>
			<point x="562" y="344"/>
			<point x="634" y="344" type="curve" smooth="yes"/>
			<point x="707" y="344"/>
			<point x="749" y="279"/>
			<point x="749" y="174" type="curve" smooth="yes"/>
			<point x="749" y="69"/>
			<point x="707" y="0"/>
		</contour>
	</outline>
</glyph>
<glyph name="sevensuperior" format="2">
	<advance width="236"/>
	<unicode hex="2077"/>
	<outline>
		<contour>
			<point x="23" y="387" type="line"/>
			<point x="79" y="387" type="line"/>
			<point x="228" y="683" type="line"/>
			<point x="222" y="692" type="line"/>
			<point x="14" y="692" type="line"/>
			<point x="9" y="586" type="line"/>
			<point x="19" y="586" type="line"/>
			<point x="28" y="641"/>
			<point x="43" y="652"/>
			<point x="69" y="652" type="curve" smooth="yes"/>
			<point x="207" y="652" type="line"/>
			<point x="219" y="674" type="line"/>
		</contour>
	</outline>
</glyph>
<glyph name="franc" format="2">
	<advance width="579"/>
	<unicode hex="20A3"/>
	<note>
		uni20A3
	</note>
	<outline>
		<contour>
			<point x="150" y="0" type="line" name="_corner02"/>
			<point x="200" y="0" type="line" name="_corner00"/>
			<point x="200" y="650" type="line"/>
			<point x="150" y="650" type="line" name="_corner01"/>
		</contour>
		<contour>
			<point x="63" y="144" type="line"/>
			<point x="483" y="144" type="line"/>
			<point x="483" y="156" type="line"/>
			<point x="63" y="156" type="line"/>
		</contour>
		<contour>
			<point x="405" y="210" type="curve"/>
			<point x="415" y="210" type="line"/>
			<point x="415" y="462" type="line"/>
			<point x="405" y="462" type="line"/>
			<point x="398" y="371"/>
			<point x="384" y="340"/>
			<point x="316" y="340" type="curve" smooth="yes"/>
			<point x="198" y="340" type="line"/>
			<point x="198" y="328" type="line"/>
			<point x="316" y="328" type="line" smooth="yes"/>
			<point x="384" y="328"/>
			<point x="399" y="293"/>
		</contour>
		<contour>
			<point x="529" y="449" type="curve"/>
			<point x="539" y="449" type="line"/>
			<point x="512" y="650" type="line"/>
			<point x="170" y="650" type="line" name="🔥"/>
			<point x="170" y="638" type="line" name="🧨"/>
			<point x="366" y="638" type="line" smooth="yes"/>
			<point x="482" y="638"/>
			<point x="510" y="536"/>
		</contour>
	</outline>
</glyph>
<glyph name="lira" format="2">
	<advance width="579"/>
	<unicode hex="20A4"/>
	<note>
		uni20A4
	</note>
	<outline>
		<contour>
			<point x="58" y="-12" type="line"/>
			<point x="104" y="9"/>
			<point x="153" y="18"/>
			<point x="191" y="18" type="curve" smooth="yes"/>
			<point x="260" y="18"/>
			<point x="306" y="-12"/>
			<point x="368" y="-12" type="curve" smooth="yes"/>
			<point x="433" y="-12"/>
			<point x="520" y="22"/>
			<point x="520" y="159" type="curve"/>
			<point x="508" y="159" type="line"/>
			<point x="508" y="77"/>
			<point x="468" y="32"/>
			<point x="389" y="32" type="curve" smooth="yes"/>
			<point x="328" y="32"/>
			<point x="305" y="59"/>
			<point x="227" y="59" type="curve" smooth="yes"/>
			<point x="173" y="59"/>
			<point x="133" y="46"/>
			<point x="105" y="26" type="curve"/>
			<point x="103" y="29" type="line"/>
			<point x="180" y="88"/>
			<point x="213" y="168"/>
			<point x="213" y="244" type="curve" smooth="yes"/>
			<point x="213" y="340"/>
			<point x="159" y="382"/>
			<point x="159" y="485" type="curve" smooth="yes"/>
			<point x="159" y="573"/>
			<point x="198" y="647"/>
			<point x="301" y="647" type="curve" smooth="yes"/>
			<point x="399" y="647"/>
			<point x="455" y="581"/>
			<point x="455" y="460" type="curve"/>
			<point x="467" y="460" type="line"/>
			<point x="471" y="613" type="line"/>
			<point x="425" y="643"/>
			<point x="377" y="660"/>
			<point x="316" y="660" type="curve" smooth="yes"/>
			<point x="175" y="660"/>
			<point x="105" y="568"/>
			<point x="105" y="462" type="curve" smooth="yes"/>
			<point x="105" y="364"/>
			<point x="165" y="316"/>
			<point x="165" y="223" type="curve" smooth="yes"/>
			<point x="165" y="158"/>
			<point x="136" y="79"/>
			<point x="51" y="-1" type="curve"/>
		</contour>
		<contour>
			<point x="60" y="246" type="line"/>
			<point x="390" y="246" type="line"/>
			<point x="390" y="258" type="line"/>
			<point x="60" y="258" type="line"/>
		</contour>
		<contour>
			<point x="60" y="346" type="line"/>
			<point x="390" y="346" type="line"/>
			<point x="390" y="358" type="line"/>
			<point x="60" y="358" type="line"/>
		</contour>
	</outline>
</glyph>
<glyph name="estimated" format="2">
	<advance width="752"/>
	<unicode hex="212E"/>
	<outline>
		<contour>
			<point x="396" y="-12" type="curve" smooth="yes"/>
			<point x="491" y="-12"/>
			<point x="584" y="22"/>
			<point x="642" y="99" type="curve"/>
			<point x="631" y="107" type="line"/>
			<point x="574" y="35"/>
			<point x="494" y="1"/>
			<point x="399" y="1" type="curve" smooth="yes"/>
			<point x="255" y="1"/>
			<point x="144" y="86"/>
			<point x="126" y="144" type="curve"/>
			<point x="137" y="99" type="line"/>
			<point x="137" y="311" type="line"/>
			<point x="698" y="311" type="line"/>
			<point x="698" y="319" type="line" smooth="yes"/>
			<point x="698" y="533"/>
			<point x="537" y="640"/>
			<point x="380" y="640" type="curve" smooth="yes"/>
			<point x="205" y="640"/>
			<point x="54" y="507"/>
			<point x="54" y="314" type="curve" smooth="yes"/>
			<point x="54" y="117"/>
			<point x="210" y="-12"/>
		</contour>
		<contour>
			<point x="137" y="323" type="line"/>
			<point x="137" y="528" type="line"/>
			<point x="122" y="498" type="line"/>
			<point x="173" y="571"/>
			<point x="255" y="628"/>
			<point x="382" y="628" type="curve" smooth="yes"/>
			<point x="506" y="628"/>
			<point x="599" y="562"/>
			<point x="628" y="502" type="curve"/>
			<point x="617" y="529" type="line"/>
			<point x="617" y="323" type="line"/>
		</contour>
	</outline>
</glyph>
<glyph name="upArrow" format="2">
	<advance width="531"/>
	<unicode hex="2191"/>
	<outline>
		<contour>
			<point x="53" y="402" type="line"/>
			<point x="59" y="396" type="line"/>
			<point x="270" y="604" type="line"/>
			<point x="272" y="604" type="line"/>
			<point x="473" y="396" type="line"/>
			<point x="478" y="402" type="line"/>
			<point x="273" y="674" type="line"/>
			<point x="269" y="674" type="line"/>
		</contour>
		<contour>
			<point x="266" y="628" type="line"/>
			<point x="236" y="87" type="line" smooth="yes"/>
			<point x="235" y="62"/>
			<point x="249" y="44"/>
			<point x="269" y="44" type="curve" smooth="yes"/>
			<point x="288" y="44"/>
			<point x="304" y="59"/>
			<point x="303" y="87" type="curve" smooth="yes"/>
			<point x="274" y="628" type="line"/>
		</contour>
	</outline>
</glyph>
<glyph name="partialdiff" format="2">
	<advance width="563"/>
	<unicode hex="2202"/>
	<outline>
		<contour>
			<point x="137" y="574" type="line"/>
			<point x="171" y="628"/>
			<point x="221" y="670"/>
			<point x="290" y="670" type="curve" smooth="yes"/>
			<point x="403" y="670"/>
			<point x="477" y="557"/>
			<point x="477" y="414" type="curve" smooth="yes"/>
			<point x="477" y="367" type="line" smooth="yes"/>
			<point x="477" y="148"/>
			<point x="376" y="4"/>
			<point x="243" y="4" type="curve" smooth="yes"/>
			<point x="147" y="4"/>
			<point x="96" y="78"/>
			<point x="96" y="184" type="curve" smooth="yes"/>
			<point x="96" y="322"/>
			<point x="183" y="443"/>
			<point x="315" y="443" type="curve" smooth="yes"/>
			<point x="383" y="443"/>
			<point x="441" y="412"/>
			<point x="493" y="342" type="curve"/>
			<point x="493" y="359" type="line"/>
			<point x="444" y="432"/>
			<point x="372" y="461"/>
			<point x="303" y="461" type="curve" smooth="yes"/>
			<point x="154" y="461"/>
			<point x="50" y="318"/>
			<point x="50" y="178" type="curve" smooth="yes"/>
			<point x="50" y="73"/>
			<point x="109" y="-12"/>
			<point x="229" y="-12" type="curve" smooth="yes"/>
			<point x="396" y="-12"/>
			<point x="523" y="151"/>
			<point x="523" y="389" type="curve" smooth="yes"/>
			<point x="523" y="584"/>
			<point x="437" y="704"/>
			<point x="307" y="704" type="curve" smooth="yes"/>
			<point x="225" y="704"/>
			<point x="162" y="652"/>
			<point x="126" y="582" type="curve"/>
		</contour>
	</outline>
</glyph>
<glyph name="emptyset" format="2">
	<advance width="700"/>
	<unicode hex="2205"/>
	<outline>
		<contour>
			<point x="91" y="63" type="line"/>
			<point x="627" y="577" type="line"/>
			<point x="609" y="595" type="line"/>
			<point x="73" y="79" type="line"/>
		</contour>
		<contour>
			<point x="351" y="75" type="curve" smooth="yes"/>
			<point x="496" y="75"/>
			<point x="605" y="189"/>
			<point x="605" y="329" type="curve" smooth="yes"/>
			<point x="605" y="469"/>
			<point x="496" y="583"/>
			<point x="351" y="583" type="curve" smooth="yes"/>
			<point x="206" y="583"/>
			<point x="97" y="469"/>
			<point x="97" y="329" type="curve" smooth="yes"/>
			<point x="97" y="189"/>
			<point x="206" y="75"/>
		</contour>
		<contour>
			<point x="351" y="101" type="curve" smooth="yes"/>
			<point x="221" y="101"/>
			<point x="125" y="201"/>
			<point x="125" y="329" type="curve" smooth="yes"/>
			<point x="125" y="457"/>
			<point x="221" y="557"/>
			<point x="351" y="557" type="curve" smooth="yes"/>
			<point x="481" y="557"/>
			<point x="577" y="457"/>
			<point x="577" y="329" type="curve" smooth="yes"/>
			<point x="577" y="201"/>
			<point x="481" y="101"/>
		</contour>
	</outline>
</glyph>
<glyph name="summation" format="2">
	<advance width="638"/>
	<unicode hex="2211"/>
	<outline>
		<contour>
			<point x="22" y="-120" type="line"/>
			<point x="538" y="-120" type="line"/>
			<point x="568" y="95" type="line"/>
			<point x="558" y="95" type="line"/>
			<point x="524" y="-49"/>
			<point x="458" y="-80"/>
			<point x="382" y="-80" type="curve" smooth="yes"/>
			<point x="44" y="-80" type="line"/>
			<point x="31" y="-113" type="line"/>
			<point x="395" y="297" type="line"/>
			<point x="395" y="303" type="line"/>
			<point x="78" y="689" type="line"/>
			<point x="75" y="681" type="line"/>
			<point x="352" y="681" type="line" smooth="yes"/>
			<point x="482" y="681"/>
			<point x="512" y="593"/>
			<point x="538" y="488" type="curve"/>
			<point x="548" y="488" type="line"/>
			<point x="518" y="693" type="line" name="❌"/>
			<point x="20" y="693" type="line" name="❌"/>
			<point x="15" y="684" type="line"/>
			<point x="362" y="268" type="line"/>
			<point x="379" y="298" type="line"/>
			<point x="15" y="-109" type="line"/>
		</contour>
	</outline>
</glyph>
<glyph name="radical" format="2">
	<advance width="568"/>
	<unicode hex="221A"/>
	<outline>
		<contour>
			<point x="286" y="-11" type="line"/>
			<point x="304" y="-1" type="line"/>
			<point x="601" y="758" type="line"/>
			<point x="588" y="758" type="line"/>
			<point x="305" y="36" type="line"/>
			<point x="308" y="40" type="line"/>
			<point x="127" y="429" type="line"/>
			<point x="25" y="377" type="line"/>
			<point x="25" y="366" type="line"/>
			<point x="72" y="376"/>
			<point x="101" y="382"/>
			<point x="124" y="333" type="curve" smooth="yes"/>
		</contour>
	</outline>
</glyph>
<glyph name="approxequal" format="2">
	<advance width="568"/>
	<unicode hex="2248"/>
	<outline>
		<contour>
			<point x="109" y="290" type="line"/>
			<point x="126" y="344"/>
			<point x="152" y="367"/>
			<point x="195" y="367" type="curve" smooth="yes"/>
			<point x="267" y="367"/>
			<point x="299" y="297"/>
			<point x="376" y="297" type="curve" smooth="yes"/>
			<point x="434" y="297"/>
			<point x="470" y="335"/>
			<point x="492" y="388" type="curve"/>
			<point x="466" y="399" type="line"/>
			<point x="446" y="354"/>
			<point x="423" y="325"/>
			<point x="377" y="325" type="curve" smooth="yes"/>
			<point x="307" y="325"/>
			<point x="280" y="395"/>
			<point x="196" y="395" type="curve" smooth="yes"/>
			<point x="138" y="395"/>
			<point x="102" y="364"/>
			<point x="82" y="300" type="curve"/>
		</contour>
		<contour>
			<point x="109" y="150" type="line"/>
			<point x="126" y="204"/>
			<point x="152" y="227"/>
			<point x="195" y="227" type="curve" smooth="yes"/>
			<point x="267" y="227"/>
			<point x="299" y="157"/>
			<point x="376" y="157" type="curve" smooth="yes"/>
			<point x="434" y="157"/>
			<point x="470" y="195"/>
			<point x="492" y="248" type="curve"/>
			<point x="466" y="259" type="line"/>
			<point x="446" y="214"/>
			<point x="423" y="185"/>
			<point x="377" y="185" type="curve" smooth="yes"/>
			<point x="307" y="185"/>
			<point x="280" y="255"/>
			<point x="196" y="255" type="curve" smooth="yes"/>
			<point x="138" y="255"/>
			<point x="102" y="224"/>
			<point x="82" y="160" type="curve"/>
		</contour>
	</outline>
</glyph>
<glyph name="blackSquare" format="2">
	<advance width="892"/>
	<unicode hex="25A0"/>
	<note>
		uni25A0
	</note>
	<outline>
		<contour>
			<point x="100" y="692" type="line"/>
			<point x="100" y="0" type="line"/>
			<point x="792" y="0" type="line"/>
			<point x="792" y="692" type="line"/>
		</contour>
	</outline>
</glyph>
<glyph name="lozenge" format="2">
	<advance width="576"/>
	<unicode hex="25CA"/>
	<outline>
		<contour>
			<point x="285" y="-42" type="line"/>
			<point x="291" y="-42" type="line"/>
			<point x="506" y="334" type="line"/>
			<point x="291" y="710" type="line"/>
			<point x="285" y="710" type="line"/>
			<point x="70" y="334" type="line"/>
		</contour>
		<contour>
			<point x="288" y="-22" type="line"/>
			<point x="87" y="334" type="line"/>
			<point x="288" y="689" type="line"/>
			<point x="489" y="334" type="line"/>
		</contour>
	</outline>
</glyph>
<glyph name="whiteCircle" format="2">
	<advance width="796"/>
	<unicode hex="25CB"/>
	<note>
		uni25CB
	</note>
	<outline>
		<contour>
			<point x="398" y="-12" type="curve" smooth="yes"/>
			<point x="610" y="-12"/>
			<point x="751" y="147"/>
			<point x="751" y="347" type="curve" smooth="yes"/>
			<point x="751" y="547"/>
			<point x="610" y="704"/>
			<point x="398" y="704" type="curve" smooth="yes"/>
			<point x="186" y="704"/>
			<point x="45" y="546"/>
			<point x="45" y="346" type="curve" smooth="yes"/>
			<point x="45" y="146"/>
			<point x="186" y="-12"/>
		</contour>
		<contour>
			<point x="398" y="-1" type="curve" smooth="yes"/>
			<point x="195" y="-1"/>
			<point x="57" y="151"/>
			<point x="57" y="346" type="curve" smooth="yes"/>
			<point x="57" y="542"/>
			<point x="195" y="693"/>
			<point x="398" y="693" type="curve" smooth="yes"/>
			<point x="601" y="693"/>
			<point x="739" y="542"/>
			<point x="739" y="346" type="curve" smooth="yes"/>
			<point x="739" y="151"/>
			<point x="601" y="-1"/>
		</contour>
	</outline>
</glyph>
<glyph name="fl" format="2">
	<advance width="553"/>
	<unicode hex="FB02"/>
	<anchor x="277" y="0" name="caret_1"/>
	<outline>
		<contour>
			<point x="107" y="0" type="line" name="_corner01"/>
			<point x="152" y="0" type="line" name="_corner00"/>
			<point x="152" y="478" type="line" name="🧨"/>
			<point x="132" y="498"/>
			<point x="120" y="535"/>
			<point x="120" y="569" type="curve" smooth="yes"/>
			<point x="120" y="642"/>
			<point x="173" y="688"/>
			<point x="256" y="688" type="curve" smooth="yes"/>
			<point x="340" y="688"/>
			<point x="391" y="641"/>
			<point x="405" y="584" type="curve"/>
			<point x="415" y="677" type="line"/>
			<point x="389" y="703"/>
			<point x="340" y="730"/>
			<point x="271" y="730" type="curve" smooth="yes"/>
			<point x="177" y="730"/>
			<point x="107" y="676"/>
			<point x="107" y="553" type="curve" smooth="yes"/>
		</contour>
		<contour>
			<point x="37" y="457" type="line"/>
			<point x="437" y="457" type="line"/>
			<point x="437" y="478" type="line"/>
			<point x="107" y="478" type="line" name="🧨"/>
			<point x="37" y="467" type="line"/>
		</contour>
		<contour>
			<point x="404" y="0" type="line" name="_corner03"/>
			<point x="449" y="0" type="line" name="_corner02"/>
			<point x="449" y="730" type="line"/>
			<point x="439" y="730" type="line"/>
			<point x="404" y="684" type="line"/>
		</contour>
	</outline>
</glyph>
<glyph name="_tail.Q" format="2">
	<advance width="778"/>
	<anchor x="363" y="0" name="_tail"/>
	<outline>
		<contour>
			<point x="368" y="-6" type="curve"/>
			<point x="357" y="-6" type="line"/>
			<point x="399" y="-119"/>
			<point x="510" y="-171"/>
			<point x="617" y="-171" type="curve"/>
			<point x="648" y="-61" type="line"/>
			<point x="640" y="-57" type="line"/>
			<point x="582" y="-145"/>
			<point x="418" y="-125"/>
		</contour>
	</outline>
</glyph>
<glyph name="acutecomb.case" format="2">
	<advance width="264"/>
	<guideline x="156" y="894" angle="0"/>
	<anchor x="99" y="640" name="_top"/>
	<anchor x="92" y="865" name="top"/>
	<outline>
		<contour>
			<point x="52" y="744" type="line"/>
			<point x="219" y="852" type="line"/>
			<point x="219" y="865" type="line"/>
			<point x="152" y="865" type="line"/>
			<point x="45" y="753" type="line"/>
		</contour>
	</outline>
</glyph>
<glyph name="acutecomb.viet.case" format="2">
	<advance width="232"/>
	<guideline x="158" y="894" angle="0"/>
	<anchor x="101" y="640" name="_top"/>
	<anchor x="84" y="845" name="top"/>
	<outline>
		<contour>
			<point x="54" y="744" type="line"/>
			<point x="187" y="832" type="line"/>
			<point x="187" y="845" type="line"/>
			<point x="114" y="845" type="line"/>
			<point x="45" y="752" type="line"/>
		</contour>
	</outline>
</glyph>
<glyph name="acutecomb.viet" format="2">
	<advance width="277"/>
	<anchor x="100" y="478" name="_top"/>
	<anchor x="129" y="704" name="top"/>
	<outline>
		<contour>
			<point x="62" y="534" type="line"/>
			<point x="207" y="644" type="line"/>
			<point x="207" y="654" type="line"/>
			<point x="142" y="654" type="line"/>
			<point x="52" y="542" type="line"/>
		</contour>
	</outline>
</glyph>
<glyph name="bracketleft.case" format="2">
	<advance width="270"/>
	<outline>
		<contour>
			<point x="80" y="-140" type="line"/>
			<point x="240" y="-140" type="line"/>
			<point x="240" y="-128" type="line"/>
			<point x="195" y="-128" type="line" smooth="yes"/>
			<point x="147" y="-128"/>
			<point x="130" y="-97"/>
			<point x="130" y="-65" type="curve" smooth="yes"/>
			<point x="130" y="724" type="line" smooth="yes"/>
			<point x="130" y="767"/>
			<point x="159" y="788"/>
			<point x="195" y="788" type="curve" smooth="yes"/>
			<point x="240" y="788" type="line"/>
			<point x="240" y="800" type="line"/>
			<point x="80" y="800" type="line"/>
		</contour>
	</outline>
</glyph>
<glyph name="caroncomb.case" format="2">
	<advance width="320"/>
	<anchor x="160" y="640" name="_top"/>
	<anchor x="160" y="853" name="top"/>
	<outline>
		<contour>
			<point x="52" y="868" type="line"/>
			<point x="45" y="860" type="line"/>
			<point x="160" y="746" type="line"/>
			<point x="164" y="746" type="line"/>
			<point x="275" y="860" type="line"/>
			<point x="268" y="868" type="line"/>
			<point x="162" y="817" type="line"/>
		</contour>
	</outline>
</glyph>
<glyph name="circumflexcomb.case" format="2">
	<advance width="380"/>
	<anchor x="190" y="640" name="_top"/>
	<anchor x="190" y="865" name="top"/>
	<anchor x="191" y="785" name="top_tilde"/>
	<anchor x="328" y="741" name="top_viet"/>
	<anchor x="309" y="741" name="top_viet2"/>
	<outline>
		<contour>
			<point x="82" y="744" type="line"/>
			<point x="192" y="795" type="line"/>
			<point x="298" y="744" type="line"/>
			<point x="305" y="752" type="line"/>
			<point x="194" y="866" type="line"/>
			<point x="190" y="866" type="line"/>
			<point x="75" y="752" type="line"/>
		</contour>
	</outline>
</glyph>
<glyph name="dieresiscomb.case" format="2">
	<advance width="372"/>
	<anchor x="186" y="640" name="_top"/>
	<anchor x="186" y="855" name="top"/>
	<outline>
		<contour>
			<point x="97" y="763" type="curve" smooth="yes"/>
			<point x="127" y="763"/>
			<point x="150" y="786"/>
			<point x="150" y="816" type="curve" smooth="yes"/>
			<point x="150" y="845"/>
			<point x="127" y="868"/>
			<point x="97" y="868" type="curve" smooth="yes"/>
			<point x="68" y="868"/>
			<point x="45" y="845"/>
			<point x="45" y="816" type="curve" smooth="yes"/>
			<point x="45" y="786"/>
			<point x="68" y="763"/>
		</contour>
		<contour>
			<point x="274" y="763" type="curve" smooth="yes"/>
			<point x="304" y="763"/>
			<point x="327" y="786"/>
			<point x="327" y="816" type="curve" smooth="yes"/>
			<point x="327" y="845"/>
			<point x="304" y="868"/>
			<point x="274" y="868" type="curve" smooth="yes"/>
			<point x="245" y="868"/>
			<point x="222" y="845"/>
			<point x="222" y="816" type="curve" smooth="yes"/>
			<point x="222" y="786"/>
			<point x="245" y="763"/>
		</contour>
	</outline>
</glyph>
<glyph name="dotaccentcomb.case" format="2">
	<advance width="185"/>
	<anchor x="93" y="640" name="_top"/>
	<anchor x="93" y="861" name="top"/>
	<outline>
		<contour>
			<point x="92" y="763" type="curve" smooth="yes"/>
			<point x="122" y="763"/>
			<point x="145" y="786"/>
			<point x="145" y="816" type="curve" smooth="yes"/>
			<point x="145" y="845"/>
			<point x="122" y="868"/>
			<point x="92" y="868" type="curve" smooth="yes"/>
			<point x="63" y="868"/>
			<point x="40" y="845"/>
			<point x="40" y="816" type="curve" smooth="yes"/>
			<point x="40" y="786"/>
			<point x="63" y="763"/>
		</contour>
	</outline>
</glyph>
<glyph name="dotaccentcomb.curve" format="2">
	<advance width="189"/>
	<anchor x="99" y="478" name="_top"/>
	<anchor x="99" y="636" name="top"/>
	<outline>
		<contour>
			<point x="99" y="587" type="curve" smooth="yes"/>
			<point x="122" y="587"/>
			<point x="139" y="604"/>
			<point x="139" y="627" type="curve" smooth="yes"/>
			<point x="139" y="649"/>
			<point x="122" y="666"/>
			<point x="99" y="666" type="curve" smooth="yes"/>
			<point x="77" y="666"/>
			<point x="60" y="649"/>
			<point x="60" y="627" type="curve" smooth="yes"/>
			<point x="60" y="604"/>
			<point x="77" y="587"/>
		</contour>
	</outline>
</glyph>
<glyph name="gravecomb.viet.case" format="2">
	<advance width="232"/>
	<guideline x="258" y="894" angle="0"/>
	<anchor x="201" y="640" name="_top"/>
	<anchor x="184" y="845" name="top"/>
	<outline>
		<contour>
			<point x="178" y="744" type="line"/>
			<point x="187" y="752" type="line"/>
			<point x="118" y="845" type="line"/>
			<point x="45" y="845" type="line"/>
			<point x="45" y="832" type="line"/>
		</contour>
	</outline>
</glyph>
<glyph name="gravecomb.viet" format="2">
	<advance width="255"/>
	<anchor x="168" y="478" name="_top"/>
	<anchor x="104" y="704" name="top"/>
	<outline>
		<contour>
			<point x="192" y="534" type="line"/>
			<point x="202" y="542" type="line"/>
			<point x="112" y="654" type="line"/>
			<point x="47" y="654" type="line"/>
			<point x="47" y="644" type="line"/>
		</contour>
	</outline>
</glyph>
<glyph name="hookabovecomb.viet" format="2">
	<advance width="263"/>
	<anchor x="138" y="478" name="_top"/>
	<anchor x="138" y="712" name="top"/>
	<outline>
		<contour>
			<point x="108" y="534" type="line"/>
			<point x="191" y="561"/>
			<point x="218" y="595"/>
			<point x="218" y="630" type="curve" smooth="yes"/>
			<point x="218" y="665"/>
			<point x="191" y="692"/>
			<point x="141" y="692" type="curve" smooth="yes"/>
			<point x="88" y="692"/>
			<point x="63" y="663"/>
			<point x="45" y="638" type="curve"/>
			<point x="54" y="631" type="line"/>
			<point x="75" y="652"/>
			<point x="97" y="663"/>
			<point x="123" y="663" type="curve" smooth="yes"/>
			<point x="153" y="663"/>
			<point x="172" y="648"/>
			<point x="172" y="618" type="curve" smooth="yes"/>
			<point x="172" y="585"/>
			<point x="149" y="562"/>
			<point x="104" y="548" type="curve"/>
		</contour>
	</outline>
</glyph>
<glyph name="hungarumlautcomb.case" format="2">
	<advance width="383"/>
	<anchor x="154" y="640" name="_top"/>
	<anchor x="154" y="865" name="top"/>
	<outline>
		<contour>
			<point x="201" y="744" type="line"/>
			<point x="338" y="852" type="line"/>
			<point x="338" y="865" type="line"/>
			<point x="274" y="865" type="line"/>
			<point x="195" y="754" type="line"/>
		</contour>
		<contour>
			<point x="51" y="744" type="line"/>
			<point x="188" y="852" type="line"/>
			<point x="188" y="865" type="line"/>
			<point x="124" y="865" type="line"/>
			<point x="45" y="754" type="line"/>
		</contour>
	</outline>
</glyph>
<glyph name="one.lf" format="2">
	<advance width="396"/>
	<outline>
		<contour>
			<point x="180" y="0" type="line" name="_corner01"/>
			<point x="225" y="0" type="line" name="_corner00"/>
			<point x="225" y="686" type="line"/>
			<point x="217" y="686" type="line"/>
			<point x="63" y="618" type="line"/>
			<point x="68" y="609" type="line"/>
			<point x="89" y="618"/>
			<point x="116" y="626"/>
			<point x="134" y="626" type="curve" smooth="yes"/>
			<point x="162" y="626"/>
			<point x="180" y="617"/>
			<point x="180" y="575" type="curve" smooth="yes"/>
		</contour>
	</outline>
</glyph>
<glyph name="ringcomb.case" format="2">
	<advance width="255"/>
	<anchor x="128" y="640" name="_top"/>
	<anchor x="128" y="869" name="top"/>
	<outline>
		<contour>
			<point x="127" y="718" type="curve" smooth="yes"/>
			<point x="175" y="718"/>
			<point x="210" y="754"/>
			<point x="210" y="799" type="curve" smooth="yes"/>
			<point x="210" y="843"/>
			<point x="175" y="879"/>
			<point x="127" y="879" type="curve" smooth="yes"/>
			<point x="80" y="879"/>
			<point x="45" y="843"/>
			<point x="45" y="799" type="curve" smooth="yes"/>
			<point x="45" y="754"/>
			<point x="80" y="718"/>
		</contour>
		<contour>
			<point x="127" y="735" type="curve" smooth="yes"/>
			<point x="88" y="735"/>
			<point x="63" y="763"/>
			<point x="63" y="799" type="curve" smooth="yes"/>
			<point x="63" y="833"/>
			<point x="88" y="863"/>
			<point x="127" y="863" type="curve" smooth="yes"/>
			<point x="168" y="863"/>
			<point x="191" y="833"/>
			<point x="191" y="799" type="curve" smooth="yes"/>
			<point x="191" y="765"/>
			<point x="168" y="735"/>
		</contour>
	</outline>
</glyph>
<glyph name="seven.lf" format="2">
	<advance width="482"/>
	<outline>
		<contour>
			<point x="122" y="0" type="line"/>
			<point x="192" y="0" type="line"/>
			<point x="465" y="679" type="line"/>
			<point x="460" y="686" type="line"/>
			<point x="49" y="686" type="line"/>
			<point x="27" y="505" type="line"/>
			<point x="37" y="505" type="line"/>
			<point x="56" y="621"/>
			<point x="76" y="646"/>
			<point x="151" y="646" type="curve" smooth="yes"/>
			<point x="445" y="646" type="line"/>
			<point x="442" y="651" type="line"/>
		</contour>
	</outline>
</glyph>
<glyph name="seven.lf.ss01" format="2">
	<advance width="492"/>
	<outline>
		<contour>
			<point x="147" y="0" type="curve"/>
			<point x="237" y="0" type="line"/>
			<point x="237" y="323"/>
			<point x="354" y="540"/>
			<point x="467" y="659" type="curve"/>
			<point x="451" y="686" type="line"/>
			<point x="68" y="686" type="line"/>
			<point x="35" y="521" type="line"/>
			<point x="65" y="520" type="line"/>
			<point x="89" y="603"/>
			<point x="124" y="619"/>
			<point x="179" y="619" type="curve" smooth="yes"/>
			<point x="384" y="619" type="line"/>
			<point x="386" y="616" type="line"/>
			<point x="246" y="450"/>
			<point x="169" y="263"/>
		</contour>
	</outline>
</glyph>
<glyph name="slashlongcomb.case" format="2">
	<advance width="637"/>
	<anchor x="319" y="349" name="_center"/>
	<outline>
		<contour>
			<point x="45" y="19" type="line"/>
			<point x="56" y="10" type="line"/>
			<point x="592" y="679" type="line"/>
			<point x="581" y="687" type="line"/>
		</contour>
	</outline>
</glyph>
<glyph name="tildecomb.viet" format="2">
	<advance width="312"/>
	<anchor x="157" y="604" name="_top"/>
	<anchor x="157" y="778" name="top"/>
	<outline>
		<contour>
			<point x="56" y="709" type="line"/>
			<point x="69" y="728"/>
			<point x="84" y="738"/>
			<point x="102" y="738" type="curve" smooth="yes"/>
			<point x="133" y="738"/>
			<point x="160" y="709"/>
			<point x="192" y="709" type="curve" smooth="yes"/>
			<point x="218" y="709"/>
			<point x="241" y="729"/>
			<point x="267" y="779" type="curve"/>
			<point x="258" y="784" type="line"/>
			<point x="243" y="764"/>
			<point x="232" y="753"/>
			<point x="213" y="753" type="curve" smooth="yes"/>
			<point x="181" y="753"/>
			<point x="157" y="784"/>
			<point x="120" y="784" type="curve" smooth="yes"/>
			<point x="94" y="784"/>
			<point x="71" y="768"/>
			<point x="45" y="714" type="curve"/>
		</contour>
	</outline>
</glyph>
<glyph name="two.lf" format="2">
	<advance width="532"/>
	<outline>
		<contour>
			<point x="51" y="0" type="line"/>
			<point x="466" y="0" type="line"/>
			<point x="496" y="179" type="line"/>
			<point x="487" y="181" type="line"/>
			<point x="454" y="37"/>
			<point x="407" y="40"/>
			<point x="334" y="40" type="curve" smooth="yes"/>
			<point x="94" y="40" type="line"/>
			<point x="94" y="33" type="line"/>
			<point x="234" y="132"/>
			<point x="456" y="303"/>
			<point x="456" y="503" type="curve" smooth="yes"/>
			<point x="456" y="616"/>
			<point x="374" y="698"/>
			<point x="267" y="698" type="curve" smooth="yes"/>
			<point x="170" y="698"/>
			<point x="85" y="631"/>
			<point x="68" y="496" type="curve"/>
			<point x="76" y="495" type="line"/>
			<point x="90" y="592"/>
			<point x="144" y="666"/>
			<point x="242" y="666" type="curve" smooth="yes"/>
			<point x="343" y="666"/>
			<point x="400" y="586"/>
			<point x="400" y="487" type="curve" smooth="yes"/>
			<point x="400" y="307"/>
			<point x="245" y="155"/>
			<point x="47" y="10" type="curve"/>
		</contour>
	</outline>
</glyph>
<glyph name="zero.lf" format="2">
	<advance width="650"/>
	<outline>
		<contour>
			<point x="325" y="-12" type="curve" smooth="yes"/>
			<point x="469" y="-12"/>
			<point x="580" y="116"/>
			<point x="580" y="346" type="curve" smooth="yes"/>
			<point x="580" y="562"/>
			<point x="469" y="698"/>
			<point x="325" y="698" type="curve" smooth="yes"/>
			<point x="181" y="698"/>
			<point x="70" y="562"/>
			<point x="70" y="346" type="curve" smooth="yes"/>
			<point x="70" y="116"/>
			<point x="181" y="-12"/>
		</contour>
		<contour>
			<point x="325" y="-4" type="curve" smooth="yes"/>
			<point x="188" y="-4"/>
			<point x="120" y="144"/>
			<point x="120" y="346" type="curve" smooth="yes"/>
			<point x="120" y="533"/>
			<point x="188" y="690"/>
			<point x="325" y="690" type="curve" smooth="yes"/>
			<point x="462" y="690"/>
			<point x="530" y="533"/>
			<point x="530" y="346" type="curve" smooth="yes"/>
			<point x="530" y="144"/>
			<point x="462" y="-4"/>
		</contour>
	</outline>
</glyph>
